<svg width="24" height="24" viewBox="0 0 24 24" fill="none" xmlns="http://www.w3.org/2000/svg">
<path d="M4.29379 7.79379C4.38668 7.70066 4.49703 7.62677 4.61852 7.57636C4.74001 7.52595 4.87025 7.5 5.00179 7.5C5.13332 7.5 5.26356 7.52595 5.38506 7.57636C5.50655 7.62677 5.6169 7.70066 5.70979 7.79379L12.0018 14.0878L18.2938 7.79379C18.4816 7.60601 18.7362 7.50052 19.0018 7.50052C19.2673 7.50052 19.522 7.60601 19.7098 7.79379C19.8976 7.98156 20.003 8.23624 20.003 8.50179C20.003 8.76734 19.8976 9.02201 19.7098 9.20979L12.7098 16.2098C12.6169 16.3029 12.5065 16.3768 12.3851 16.4272C12.2636 16.4776 12.1333 16.5036 12.0018 16.5036C11.8703 16.5036 11.74 16.4776 11.6185 16.4272C11.497 16.3768 11.3867 16.3029 11.2938 16.2098L4.29379 9.20979C4.20066 9.1169 4.12678 9.00654 4.07636 8.88505C4.02595 8.76356 4 8.63332 4 8.50179C4 8.37025 4.02595 8.24001 4.07636 8.11852C4.12678 7.99703 4.20066 7.88668 4.29379 7.79379Z" fill="white"/>
</svg>
