<svg width="24" height="25" viewBox="0 0 24 25" fill="none" xmlns="http://www.w3.org/2000/svg">
<path d="M7.79379 5.18246C7.70066 5.27535 7.62677 5.3857 7.57636 5.50719C7.52595 5.62868 7.5 5.75892 7.5 5.89046C7.5 6.02199 7.52595 6.15224 7.57636 6.27373C7.62677 6.39522 7.70066 6.50557 7.79379 6.59846L14.0878 12.8905L7.79379 19.1825C7.60601 19.3702 7.50052 19.6249 7.50052 19.8905C7.50052 20.156 7.60601 20.4107 7.79379 20.5985C7.98156 20.7862 8.23624 20.8917 8.50179 20.8917C8.76734 20.8917 9.02201 20.7862 9.20979 20.5985L16.2098 13.5985C16.3029 13.5056 16.3768 13.3952 16.4272 13.2737C16.4776 13.1522 16.5036 13.022 16.5036 12.8905C16.5036 12.7589 16.4776 12.6287 16.4272 12.5072C16.3768 12.3857 16.3029 12.2754 16.2098 12.1825L9.20979 5.18246C9.1169 5.08933 9.00654 5.01545 8.88505 4.96503C8.76356 4.91462 8.63332 4.88867 8.50179 4.88867C8.37025 4.88867 8.24001 4.91462 8.11852 4.96503C7.99703 5.01545 7.88668 5.08933 7.79379 5.18246Z" fill="white"/>
</svg>
