<svg width="101" height="52" viewBox="0 0 101 52" fill="none" xmlns="http://www.w3.org/2000/svg">
<path d="M41.7859 0.827697C43.5553 0.827697 45.2264 1.18403 46.7992 1.89671C48.372 2.60938 49.7359 3.58009 50.8909 4.80884C52.0705 6.01301 52.9921 7.42607 53.6556 9.04801C54.3437 10.6454 54.6877 12.3288 54.6877 14.0982C54.6877 15.7447 54.3928 17.3175 53.803 18.8165C53.2378 20.291 52.4514 21.6181 51.4438 22.7977C50.4363 23.9773 49.2444 24.9603 47.8682 25.7467C46.5166 26.5331 45.0544 27.0369 43.4816 27.258L45.6564 29.949H35.4824L33.3813 27.3686H14.8763C13.1069 27.3686 11.4358 27.0123 9.86305 26.2996C8.29025 25.5869 6.91406 24.6285 5.73446 23.4243C4.57944 22.1956 3.65788 20.7825 2.96978 19.1852C2.30626 17.5632 1.9745 15.8676 1.9745 14.0982C1.9745 12.3288 2.30626 10.6454 2.96978 9.04801C3.65788 7.42607 4.57944 6.01301 5.73446 4.80884C6.91406 3.58009 8.29025 2.60938 9.86305 1.89671C11.4358 1.18403 13.1069 0.827697 14.8763 0.827697H41.7859ZM39.3898 10.4119H17.2724C16.2402 10.4119 15.3678 10.7683 14.6552 11.4809C13.9425 12.1936 13.5862 13.066 13.5862 14.0982C13.5862 15.1303 13.9425 16.0027 14.6552 16.7154C15.3678 17.4281 16.2402 17.7844 17.2724 17.7844H25.6402L22.5806 14.0244L32.7546 14.0613L35.7773 17.7844H39.3898C40.422 17.7844 41.2944 17.4281 42.0071 16.7154C42.7197 16.0027 43.0761 15.1303 43.0761 14.0982C43.0761 13.066 42.7197 12.1936 42.0071 11.4809C41.2944 10.7683 40.422 10.4119 39.3898 10.4119ZM54.6964 1.19632H66.3449V18.153H98.9312V27H54.6964V1.19632Z" fill="#FF914D"/>
<path d="M10.601 50.2967C9.91291 50.5978 8.94528 50.7913 7.95613 50.7913C3.56951 50.7913 1.05365 47.2648 1.05365 42.8352C1.05365 38.384 3.54801 34.836 7.95613 34.836C12.4288 34.836 14.8801 38.384 14.8801 42.8352C14.8801 45.6521 13.848 48.1249 11.9557 49.5441L13.848 51.931H11.8697L10.601 50.2967ZM7.95613 48.9851C8.57972 48.9851 9.07429 48.9205 9.43985 48.7485L7.22503 45.9746H9.20331L10.8375 48.1249C12.2352 47.0068 12.9448 45.2005 12.9448 42.8352C12.9448 39.4592 11.3106 36.6423 7.95613 36.6423C4.60166 36.6423 2.98893 39.4592 2.98893 42.8352C2.98893 46.1897 4.64466 48.9851 7.95613 48.9851ZM20.1099 50.7053C17.8306 50.7053 16.3684 49.0926 16.3684 46.3832V39.0506H18.1746V45.8886C18.1746 48.1034 18.9487 49.1141 20.583 49.1141C22.3892 49.1141 23.4859 47.8884 23.4859 45.8456V39.0506H25.2921V50.4473H23.5719V48.598C22.9483 49.9527 21.7441 50.7053 20.1099 50.7053ZM27.1317 50.4473V39.0506H28.9379V50.4473H27.1317ZM27.0887 37.2659V35.1586H28.9809V37.2659H27.0887ZM35.6069 50.7053C32.4244 50.7053 30.3816 48.3615 30.3816 44.749C30.3816 41.1364 32.4244 38.7926 35.6069 38.7926C38.2303 38.7926 40.058 40.2118 40.4451 42.7492L38.5528 42.8782C38.2948 41.373 37.1551 40.5128 35.6069 40.5128C33.4996 40.5128 32.2739 42.1041 32.2739 44.749C32.2739 47.3938 33.4996 48.9851 35.6069 48.9851C37.1551 48.9851 38.2948 48.1249 38.5528 46.4047L40.4451 46.5337C40.058 49.0711 38.2303 50.7053 35.6069 50.7053ZM41.5606 50.4473V35.1801H43.3668V45.179L48.9146 39.0506H51.3229L46.8288 43.8888L51.5165 50.4473H49.3232L45.6031 45.1145L43.3668 47.4798V50.4473H41.5606ZM57.2974 50.4473V35.1801H59.1467V48.641H66.7803V50.4473H57.2974ZM71.8984 50.7053C68.6729 50.7053 66.6731 48.3615 66.6731 44.749C66.6731 41.1364 68.6729 38.7926 71.8123 38.7926C74.7798 38.7926 76.8441 40.9429 76.8441 44.7705V45.308H68.5654C68.6944 47.7594 69.9201 48.9851 71.8984 48.9851C73.3821 48.9851 74.3497 48.2324 74.7368 47.0713L76.672 47.2218C76.07 49.2646 74.3067 50.7053 71.8984 50.7053ZM74.8658 43.7168C74.6938 41.5235 73.4896 40.5128 71.8123 40.5128C70.0491 40.5128 68.8664 41.6095 68.5654 43.7168H74.8658ZM81.4324 50.7053C79.0671 50.7053 77.5834 49.5656 77.5834 47.6089C77.5834 45.6736 78.6801 44.5984 81.1744 44.1254L85.217 43.3728C85.217 41.459 84.3139 40.5128 82.5076 40.5128C80.9164 40.5128 80.0347 41.244 79.6907 42.5556L77.7769 42.4051C78.207 40.2548 79.9272 38.7926 82.5076 38.7926C85.432 38.7926 87.0232 40.5559 87.0232 43.4373V48.1464C87.0232 48.6625 87.1953 48.856 87.6253 48.856H88.0769V50.4473C87.9479 50.4688 87.6683 50.4903 87.3888 50.4903C86.0126 50.4903 85.389 49.9527 85.2385 48.684C84.6794 49.8667 83.1097 50.7053 81.4324 50.7053ZM81.6045 49.1141C83.8838 49.1141 85.217 47.6519 85.217 45.7596V44.9425L81.5185 45.6306C79.9702 45.9101 79.4757 46.4907 79.4757 47.4368C79.4757 48.512 80.2713 49.1141 81.6045 49.1141ZM93.1634 50.7053C90.196 50.7053 88.3467 48.4045 88.3467 44.749C88.3467 41.0934 90.196 38.7926 93.1634 38.7926C94.6901 38.7926 96.0448 39.4807 96.6684 40.6419V35.1801H98.4746V50.4473H96.8404L96.7759 48.727C96.1308 49.9742 94.7546 50.7053 93.1634 50.7053ZM93.5289 48.9851C95.5502 48.9851 96.6684 47.3508 96.6684 44.749C96.6684 42.1041 95.5502 40.5128 93.5289 40.5128C91.5291 40.5128 90.239 42.1041 90.239 44.749C90.239 47.3508 91.5291 48.9851 93.5289 48.9851Z" fill="white"/>
</svg>
