<svg width="450" height="471" viewBox="0 0 450 471" fill="none" xmlns="http://www.w3.org/2000/svg">
<mask id="path-1-outside-1_212_13759" maskUnits="userSpaceOnUse" x="0" y="-1.11719" width="450" height="473" fill="black">
<rect fill="white" y="-1.11719" width="450" height="473"/>
<path d="M339.482 0.264194C354.532 0.264194 368.746 3.29515 382.124 9.35706C395.502 15.419 407.103 23.6757 416.928 34.1273C426.961 44.3699 434.8 56.3892 440.444 70.1853C446.297 83.7723 449.223 98.091 449.223 113.141C449.223 127.146 446.715 140.524 441.698 153.275C436.89 165.817 430.201 177.105 421.631 187.138C413.061 197.172 402.923 205.533 391.217 212.222C379.72 218.911 367.283 223.196 353.905 225.078L372.404 247.967H285.865L267.993 226.018H110.592C95.5417 226.018 81.3275 222.987 67.9495 216.925C54.5715 210.863 42.8657 202.711 32.8322 192.469C23.0077 182.017 15.1691 169.998 9.31617 156.411C3.67232 142.615 0.850396 128.192 0.850396 113.141C0.850396 98.091 3.67232 83.7723 9.31617 70.1853C15.1691 56.3892 23.0077 44.3699 32.8322 34.1273C42.8657 23.6757 54.5715 15.419 67.9495 9.35706C81.3275 3.29515 95.5417 0.264194 110.592 0.264194H339.482ZM319.101 81.7865H130.973C122.193 81.7865 114.773 84.8175 108.711 90.8794C102.649 96.9413 99.6178 104.362 99.6178 113.141C99.6178 121.921 102.649 129.341 108.711 135.403C114.773 141.465 122.193 144.496 130.973 144.496H202.148L176.123 112.514L262.662 112.828L288.373 144.496H319.101C327.88 144.496 335.301 141.465 341.363 135.403C347.425 129.341 350.456 121.921 350.456 113.141C350.456 104.362 347.425 96.9413 341.363 90.8794C335.301 84.8175 327.88 81.7865 319.101 81.7865ZM36.8287 251.4H135.91V395.631H413.086V470.883H36.8287V251.4Z"/>
</mask>
<path d="M382.124 9.35706L382.415 8.71554L382.124 9.35706ZM416.928 34.1273L416.415 34.6097L416.42 34.615L416.425 34.6202L416.928 34.1273ZM440.444 70.1853L439.792 70.452L439.797 70.4639L440.444 70.1853ZM441.698 153.275L441.043 153.017L441.04 153.023L441.698 153.275ZM421.631 187.138L421.095 186.681L421.631 187.138ZM391.217 212.222L390.867 211.611L390.863 211.613L391.217 212.222ZM353.905 225.078L353.807 224.38L352.575 224.553L353.357 225.52L353.905 225.078ZM372.404 247.967V248.671H373.879L372.952 247.524L372.404 247.967ZM285.865 247.967L285.319 248.411L285.53 248.671H285.865V247.967ZM267.993 226.018L268.539 225.574L268.327 225.314H267.993V226.018ZM67.9495 216.925L67.6588 217.567L67.9495 216.925ZM32.8322 192.469L32.319 192.951L32.324 192.956L32.3291 192.962L32.8322 192.469ZM9.31617 156.411L8.66419 156.677L8.66933 156.689L9.31617 156.411ZM9.31617 70.1853L8.66778 69.9102L8.66575 69.9151L9.31617 70.1853ZM32.8322 34.1273L32.3241 33.6395L32.3239 33.6398L32.8322 34.1273ZM67.9495 9.35706L67.6588 8.71554L67.9495 9.35706ZM108.711 90.8794L108.213 90.3814L108.711 90.8794ZM108.711 135.403L108.213 135.901L108.711 135.403ZM202.148 144.496V145.2H203.629L202.694 144.051L202.148 144.496ZM176.123 112.514L176.126 111.81L174.638 111.804L175.577 112.959L176.123 112.514ZM262.662 112.828L263.209 112.384L262.999 112.125L262.665 112.123L262.662 112.828ZM288.373 144.496L287.827 144.94L288.038 145.2H288.373V144.496ZM341.363 90.8794L341.861 90.3814L341.363 90.8794ZM339.482 0.968503C354.434 0.968503 368.549 3.97909 381.833 9.99858L382.415 8.71554C368.943 2.61121 354.63 -0.440115 339.482 -0.440115V0.968503ZM381.833 9.99858C395.129 16.0234 406.655 24.2268 416.415 34.6097L417.441 33.6449C407.552 23.1246 395.874 14.8145 382.415 8.71554L381.833 9.99858ZM416.425 34.6202C426.392 44.7951 434.181 56.7367 439.792 70.4519L441.096 69.9186C435.419 56.0416 427.531 43.9446 417.431 33.6344L416.425 34.6202ZM439.797 70.4639C445.611 83.9614 448.519 98.1851 448.519 113.141H449.927C449.927 97.9968 446.982 83.5832 441.091 69.9066L439.797 70.4639ZM448.519 113.141C448.519 127.06 446.026 140.35 441.043 153.017L442.353 153.533C447.403 140.698 449.927 127.233 449.927 113.141H448.519ZM441.04 153.023C436.261 165.492 429.613 176.71 421.095 186.681L422.166 187.596C430.79 177.5 437.52 166.143 442.356 153.527L441.04 153.023ZM421.095 186.681C412.579 196.651 402.504 204.961 390.867 211.611L391.566 212.834C403.341 206.105 413.542 197.692 422.166 187.596L421.095 186.681ZM390.863 211.613C379.446 218.256 367.096 222.511 353.807 224.38L354.003 225.775C367.47 223.881 379.994 219.567 391.571 212.831L390.863 211.613ZM353.357 225.52L371.856 248.409L372.952 247.524L354.452 224.635L353.357 225.52ZM372.404 247.262H285.865V248.671H372.404V247.262ZM286.411 247.522L268.539 225.574L267.447 226.463L285.319 248.411L286.411 247.522ZM267.993 225.314H110.592V226.723H267.993V225.314ZM110.592 225.314C95.6394 225.314 81.5246 222.303 68.2402 216.284L67.6588 217.567C81.1305 223.671 95.444 226.723 110.592 226.723V225.314ZM68.2402 216.284C54.9396 210.257 43.3064 202.155 33.3354 191.976L32.3291 192.962C42.4251 203.268 54.2034 211.47 67.6588 217.567L68.2402 216.284ZM33.3454 191.986C23.5787 181.596 15.7846 169.646 9.96302 156.132L8.66933 156.689C14.5536 170.349 22.4368 182.438 32.319 192.951L33.3454 191.986ZM9.96804 156.144C4.35916 142.434 1.55471 128.101 1.55471 113.141H0.146088C0.146088 128.282 2.98548 142.796 8.6643 156.677L9.96804 156.144ZM1.55471 113.141C1.55471 98.1815 4.35915 83.9549 9.9666 70.4554L8.66575 69.9151C2.9855 83.5898 0.146088 98.0004 0.146088 113.141H1.55471ZM9.96455 70.4603C15.7859 56.7385 23.5785 44.7923 33.3405 34.6148L32.3239 33.6398C22.437 43.9474 14.5522 56.0398 8.6678 69.9102L9.96455 70.4603ZM33.3403 34.6151C43.3109 24.229 54.9426 16.0241 68.2402 9.99858L67.6588 8.71554C54.2004 14.8139 42.4206 23.1225 32.3241 33.6395L33.3403 34.6151ZM68.2402 9.99858C81.5246 3.97909 95.6394 0.968503 110.592 0.968503V-0.440115C95.444 -0.440115 81.1305 2.61121 67.6588 8.71554L68.2402 9.99858ZM110.592 0.968503H339.482V-0.440115H110.592V0.968503ZM319.101 81.0822H130.973V82.4908H319.101V81.0822ZM130.973 81.0822C122.011 81.0822 114.41 84.1838 108.213 90.3814L109.209 91.3774C115.135 85.4511 122.375 82.4908 130.973 82.4908V81.0822ZM108.213 90.3814C102.015 96.5789 98.9135 104.18 98.9135 113.141H100.322C100.322 104.544 103.282 97.3037 109.209 91.3774L108.213 90.3814ZM98.9135 113.141C98.9135 122.102 102.015 129.704 108.213 135.901L109.209 134.905C103.282 128.979 100.322 121.739 100.322 113.141H98.9135ZM108.213 135.901C114.41 142.099 122.011 145.2 130.973 145.2V143.792C122.375 143.792 115.135 140.831 109.209 134.905L108.213 135.901ZM130.973 145.2H202.148V143.792H130.973V145.2ZM202.694 144.051L176.67 112.07L175.577 112.959L201.602 144.941L202.694 144.051ZM176.121 113.218L262.66 113.532L262.665 112.123L176.126 111.81L176.121 113.218ZM262.116 113.272L287.827 144.94L288.92 144.052L263.209 112.384L262.116 113.272ZM288.373 145.2H319.101V143.792H288.373V145.2ZM319.101 145.2C328.062 145.2 335.663 142.099 341.861 135.901L340.865 134.905C334.938 140.831 327.699 143.792 319.101 143.792V145.2ZM341.861 135.901C348.058 129.704 351.16 122.102 351.16 113.141H349.751C349.751 121.739 346.791 128.979 340.865 134.905L341.861 135.901ZM351.16 113.141C351.16 104.18 348.058 96.5789 341.861 90.3814L340.865 91.3774C346.791 97.3037 349.751 104.544 349.751 113.141H351.16ZM341.861 90.3814C335.663 84.1838 328.062 81.0822 319.101 81.0822V82.4908C327.699 82.4908 334.938 85.4511 340.865 91.3774L341.861 90.3814ZM36.8287 251.4V250.695H36.1244V251.4H36.8287ZM135.91 251.4H136.614V250.695H135.91V251.4ZM135.91 395.631H135.205V396.336H135.91V395.631ZM413.086 395.631H413.79V394.927H413.086V395.631ZM413.086 470.883V471.587H413.79V470.883H413.086ZM36.8287 470.883H36.1244V471.587H36.8287V470.883ZM36.8287 252.104H135.91V250.695H36.8287V252.104ZM135.205 251.4V395.631H136.614V251.4H135.205ZM135.91 396.336H413.086V394.927H135.91V396.336ZM412.381 395.631V470.883H413.79V395.631H412.381ZM413.086 470.178H36.8287V471.587H413.086V470.178ZM37.533 470.883V251.4H36.1244V470.883H37.533Z" fill="white" mask="url(#path-1-outside-1_212_13759)"/>
</svg>
