<svg width="250" height="126" viewBox="0 0 250 126" fill="none" xmlns="http://www.w3.org/2000/svg">
<mask id="path-1-outside-1_669_6901" maskUnits="userSpaceOnUse" x="3.24731" y="0.933594" width="244" height="76" fill="black">
<rect fill="white" x="3.24731" y="0.933594" width="244" height="76"/>
<path fill-rule="evenodd" clip-rule="evenodd" d="M87.8277 74.656H112.188H113.011L112.494 74.016L108.095 68.5735L107.628 67.9952C107.873 67.9607 108.117 67.9234 108.36 67.8834C111.976 67.2878 115.351 66.0781 118.486 64.2542C121.892 62.3077 124.842 59.8745 127.336 56.9547C129.83 54.0349 131.777 50.7502 133.176 47.1004C133.86 45.362 134.383 43.5834 134.747 41.7649V29.1107C134.321 26.9925 133.676 24.9292 132.811 22.9209C131.168 18.9062 128.887 15.4085 125.967 12.4279C123.109 9.38642 119.733 6.98367 115.839 5.21963C111.946 3.45559 107.81 2.57357 103.43 2.57357H36.8225C32.4428 2.57357 28.3065 3.45559 24.4134 5.21963C20.5203 6.98367 17.1139 9.38642 14.1941 12.4279C11.3352 15.4085 9.05408 18.9062 7.35086 22.9209C5.70848 26.8748 4.88729 31.0416 4.88729 35.4212C4.88729 39.8009 5.70848 43.9981 7.35086 48.0129C9.05408 51.9667 11.3352 55.4644 14.1941 58.5059C17.1139 61.4865 20.5203 63.8588 24.4134 65.6229C28.3065 67.3869 32.4428 68.2689 36.8225 68.2689H82.6268L87.8277 74.656ZM134.747 26.4227C134.379 25.1527 133.93 23.9028 133.401 22.6731C131.729 18.5893 129.406 15.0244 126.429 11.9847C123.513 8.88312 120.069 6.43349 116.104 4.63671C112.125 2.83412 107.899 1.93359 103.43 1.93359H36.8225C32.3541 1.93359 28.1274 2.83412 24.1493 4.63671C20.1831 6.43387 16.7094 8.88369 13.7325 11.9847C10.8167 15.0245 8.49357 18.5887 6.76172 22.6709L6.75985 22.6754C5.08439 26.7089 4.24731 30.9593 4.24731 35.4212C4.24731 39.8832 5.08438 44.1628 6.75854 48.2552L6.76077 48.2606L6.7631 48.266C8.4948 52.2861 10.8163 55.8468 13.7278 58.9442L13.7323 58.949L13.737 58.9537C16.7135 61.9923 20.1859 64.4099 24.1493 66.2058C28.1274 68.0084 32.3541 68.9089 36.8225 68.9089H82.3226L87.3314 75.0601L87.5235 75.2959H87.8277H113.011H114.351L113.509 74.2537L108.821 68.4539C112.377 67.8265 115.706 66.6113 118.805 64.8086C122.273 62.8265 125.28 60.3468 127.823 57.3704C130.364 54.3949 132.348 51.0476 133.772 47.3321C134.143 46.3884 134.468 45.4332 134.747 44.4665V67.3563V67.9963H135.387H244.879H245.519V67.3563V45.4579V44.8179H244.879H164.86V3.48584V2.84587H164.22H135.387H134.747V3.48584V26.4227ZM135.387 41.8279C135.799 39.743 136.006 37.6072 136.006 35.4212C136.006 33.246 135.799 31.1212 135.387 29.0473V4.12581V3.48584H136.027H163.58H164.22V4.12581V44.8179V45.4579H164.86H244.239H244.879V46.0978V66.7164V67.3563H244.239H136.027H135.387V66.7164V41.8279ZM81.0757 35.33L56.72 35.2418L55.8924 35.2388L56.4147 35.8806L62.9449 43.9056L63.4656 44.5456H62.6406H42.7534C40.1985 44.5456 38.0391 43.6636 36.2751 41.8995C34.511 40.1355 33.629 37.9761 33.629 35.4212C33.629 32.8664 34.511 30.707 36.2751 28.943C38.0391 27.1789 40.1985 26.2969 42.7534 26.2969H97.4995C100.054 26.2969 102.214 27.1789 103.978 28.943C105.742 30.707 106.624 32.8664 106.624 35.4212C106.624 37.9761 105.742 40.1355 103.978 41.8995C102.214 43.6636 100.054 44.5456 97.4995 44.5456H88.5576L81.0757 35.33ZM55.396 35.6427L62.1198 43.9056H42.7534C40.3637 43.9056 38.3684 43.0878 36.7276 41.447C35.0868 39.8062 34.269 37.8109 34.269 35.4212C34.269 33.0316 35.0868 31.0363 36.7276 29.3955C38.3684 27.7547 40.3637 26.9369 42.7534 26.9369H97.4995C99.8892 26.9369 101.884 27.7547 103.525 29.3955C105.166 31.0363 105.984 33.0316 105.984 35.4212C105.984 37.8109 105.166 39.8062 103.525 41.447C101.884 43.0878 99.8892 43.9056 97.4995 43.9056H88.8624L81.5725 34.9266L81.3813 34.6911L81.078 34.69L55.8948 34.5988L54.5426 34.5939L55.396 35.6427Z"/>
<path fill-rule="evenodd" clip-rule="evenodd" d="M112.188 74.656H87.8277L82.6268 68.2689H36.8225C32.4428 68.2689 28.3065 67.3869 24.4134 65.6229C20.5203 63.8588 17.1139 61.4865 14.1941 58.5059C11.3352 55.4644 9.05408 51.9667 7.35086 48.0129C5.70848 43.9981 4.88729 39.8009 4.88729 35.4212C4.88729 31.0416 5.70848 26.8748 7.35086 22.9209C9.05408 18.9062 11.3352 15.4085 14.1941 12.4279C17.1139 9.38642 20.5203 6.98367 24.4134 5.21963C28.3065 3.45559 32.4428 2.57357 36.8225 2.57357H103.43C107.81 2.57357 111.946 3.45559 115.839 5.21963C119.733 6.98367 123.109 9.38642 125.967 12.4279C128.887 15.4085 131.168 18.9062 132.811 22.9209C133.676 24.9292 134.321 26.9925 134.747 29.1107V41.7649C134.383 43.5834 133.86 45.362 133.176 47.1004C131.777 50.7502 129.83 54.0349 127.336 56.9547C124.842 59.8745 121.892 62.3077 118.486 64.2542C115.351 66.0781 111.976 67.2878 108.36 67.8834C108.117 67.9234 107.873 67.9607 107.628 67.9952L108.095 68.5735L112.494 74.016L113.011 74.656H112.188ZM81.0757 35.33L56.72 35.2418L55.8924 35.2388L56.4147 35.8806L62.9449 43.9056L63.4656 44.5456H62.6406H42.7534C40.1985 44.5456 38.0391 43.6636 36.2751 41.8995C34.511 40.1355 33.629 37.9761 33.629 35.4212C33.629 32.8664 34.511 30.707 36.2751 28.943C38.0391 27.1789 40.1985 26.2969 42.7534 26.2969H97.4995C100.054 26.2969 102.214 27.1789 103.978 28.943C105.742 30.707 106.624 32.8664 106.624 35.4212C106.624 37.9761 105.742 40.1355 103.978 41.8995C102.214 43.6636 100.054 44.5456 97.4995 44.5456H88.5576L81.0757 35.33Z"/>
<path d="M136.006 35.4212C136.006 37.6072 135.799 39.743 135.387 41.8279V66.7164V67.3563H136.027H244.239H244.879V66.7164V46.0978V45.4579H244.239H164.86H164.22V44.8179V4.12581V3.48584H163.58H136.027H135.387V4.12581V29.0473C135.799 31.1212 136.006 33.246 136.006 35.4212Z"/>
</mask>
<path fill-rule="evenodd" clip-rule="evenodd" d="M87.8277 74.656H112.188H113.011L112.494 74.016L108.095 68.5735L107.628 67.9952C107.873 67.9607 108.117 67.9234 108.36 67.8834C111.976 67.2878 115.351 66.0781 118.486 64.2542C121.892 62.3077 124.842 59.8745 127.336 56.9547C129.83 54.0349 131.777 50.7502 133.176 47.1004C133.86 45.362 134.383 43.5834 134.747 41.7649V29.1107C134.321 26.9925 133.676 24.9292 132.811 22.9209C131.168 18.9062 128.887 15.4085 125.967 12.4279C123.109 9.38642 119.733 6.98367 115.839 5.21963C111.946 3.45559 107.81 2.57357 103.43 2.57357H36.8225C32.4428 2.57357 28.3065 3.45559 24.4134 5.21963C20.5203 6.98367 17.1139 9.38642 14.1941 12.4279C11.3352 15.4085 9.05408 18.9062 7.35086 22.9209C5.70848 26.8748 4.88729 31.0416 4.88729 35.4212C4.88729 39.8009 5.70848 43.9981 7.35086 48.0129C9.05408 51.9667 11.3352 55.4644 14.1941 58.5059C17.1139 61.4865 20.5203 63.8588 24.4134 65.6229C28.3065 67.3869 32.4428 68.2689 36.8225 68.2689H82.6268L87.8277 74.656ZM134.747 26.4227C134.379 25.1527 133.93 23.9028 133.401 22.6731C131.729 18.5893 129.406 15.0244 126.429 11.9847C123.513 8.88312 120.069 6.43349 116.104 4.63671C112.125 2.83412 107.899 1.93359 103.43 1.93359H36.8225C32.3541 1.93359 28.1274 2.83412 24.1493 4.63671C20.1831 6.43387 16.7094 8.88369 13.7325 11.9847C10.8167 15.0245 8.49357 18.5887 6.76172 22.6709L6.75985 22.6754C5.08439 26.7089 4.24731 30.9593 4.24731 35.4212C4.24731 39.8832 5.08438 44.1628 6.75854 48.2552L6.76077 48.2606L6.7631 48.266C8.4948 52.2861 10.8163 55.8468 13.7278 58.9442L13.7323 58.949L13.737 58.9537C16.7135 61.9923 20.1859 64.4099 24.1493 66.2058C28.1274 68.0084 32.3541 68.9089 36.8225 68.9089H82.3226L87.3314 75.0601L87.5235 75.2959H87.8277H113.011H114.351L113.509 74.2537L108.821 68.4539C112.377 67.8265 115.706 66.6113 118.805 64.8086C122.273 62.8265 125.28 60.3468 127.823 57.3704C130.364 54.3949 132.348 51.0476 133.772 47.3321C134.143 46.3884 134.468 45.4332 134.747 44.4665V67.3563V67.9963H135.387H244.879H245.519V67.3563V45.4579V44.8179H244.879H164.86V3.48584V2.84587H164.22H135.387H134.747V3.48584V26.4227ZM135.387 41.8279C135.799 39.743 136.006 37.6072 136.006 35.4212C136.006 33.246 135.799 31.1212 135.387 29.0473V4.12581V3.48584H136.027H163.58H164.22V4.12581V44.8179V45.4579H164.86H244.239H244.879V46.0978V66.7164V67.3563H244.239H136.027H135.387V66.7164V41.8279ZM81.0757 35.33L56.72 35.2418L55.8924 35.2388L56.4147 35.8806L62.9449 43.9056L63.4656 44.5456H62.6406H42.7534C40.1985 44.5456 38.0391 43.6636 36.2751 41.8995C34.511 40.1355 33.629 37.9761 33.629 35.4212C33.629 32.8664 34.511 30.707 36.2751 28.943C38.0391 27.1789 40.1985 26.2969 42.7534 26.2969H97.4995C100.054 26.2969 102.214 27.1789 103.978 28.943C105.742 30.707 106.624 32.8664 106.624 35.4212C106.624 37.9761 105.742 40.1355 103.978 41.8995C102.214 43.6636 100.054 44.5456 97.4995 44.5456H88.5576L81.0757 35.33ZM55.396 35.6427L62.1198 43.9056H42.7534C40.3637 43.9056 38.3684 43.0878 36.7276 41.447C35.0868 39.8062 34.269 37.8109 34.269 35.4212C34.269 33.0316 35.0868 31.0363 36.7276 29.3955C38.3684 27.7547 40.3637 26.9369 42.7534 26.9369H97.4995C99.8892 26.9369 101.884 27.7547 103.525 29.3955C105.166 31.0363 105.984 33.0316 105.984 35.4212C105.984 37.8109 105.166 39.8062 103.525 41.447C101.884 43.0878 99.8892 43.9056 97.4995 43.9056H88.8624L81.5725 34.9266L81.3813 34.6911L81.078 34.69L55.8948 34.5988L54.5426 34.5939L55.396 35.6427Z" stroke="url(#paint0_linear_669_6901)" stroke-width="2" mask="url(#path-1-outside-1_669_6901)"/>
<path fill-rule="evenodd" clip-rule="evenodd" d="M112.188 74.656H87.8277L82.6268 68.2689H36.8225C32.4428 68.2689 28.3065 67.3869 24.4134 65.6229C20.5203 63.8588 17.1139 61.4865 14.1941 58.5059C11.3352 55.4644 9.05408 51.9667 7.35086 48.0129C5.70848 43.9981 4.88729 39.8009 4.88729 35.4212C4.88729 31.0416 5.70848 26.8748 7.35086 22.9209C9.05408 18.9062 11.3352 15.4085 14.1941 12.4279C17.1139 9.38642 20.5203 6.98367 24.4134 5.21963C28.3065 3.45559 32.4428 2.57357 36.8225 2.57357H103.43C107.81 2.57357 111.946 3.45559 115.839 5.21963C119.733 6.98367 123.109 9.38642 125.967 12.4279C128.887 15.4085 131.168 18.9062 132.811 22.9209C133.676 24.9292 134.321 26.9925 134.747 29.1107V41.7649C134.383 43.5834 133.86 45.362 133.176 47.1004C131.777 50.7502 129.83 54.0349 127.336 56.9547C124.842 59.8745 121.892 62.3077 118.486 64.2542C115.351 66.0781 111.976 67.2878 108.36 67.8834C108.117 67.9234 107.873 67.9607 107.628 67.9952L108.095 68.5735L112.494 74.016L113.011 74.656H112.188ZM81.0757 35.33L56.72 35.2418L55.8924 35.2388L56.4147 35.8806L62.9449 43.9056L63.4656 44.5456H62.6406H42.7534C40.1985 44.5456 38.0391 43.6636 36.2751 41.8995C34.511 40.1355 33.629 37.9761 33.629 35.4212C33.629 32.8664 34.511 30.707 36.2751 28.943C38.0391 27.1789 40.1985 26.2969 42.7534 26.2969H97.4995C100.054 26.2969 102.214 27.1789 103.978 28.943C105.742 30.707 106.624 32.8664 106.624 35.4212C106.624 37.9761 105.742 40.1355 103.978 41.8995C102.214 43.6636 100.054 44.5456 97.4995 44.5456H88.5576L81.0757 35.33Z" stroke="url(#paint1_linear_669_6901)" stroke-width="2" mask="url(#path-1-outside-1_669_6901)"/>
<path d="M136.006 35.4212C136.006 37.6072 135.799 39.743 135.387 41.8279V66.7164V67.3563H136.027H244.239H244.879V66.7164V46.0978V45.4579H244.239H164.86H164.22V44.8179V4.12581V3.48584H163.58H136.027H135.387V4.12581V29.0473C135.799 31.1212 136.006 33.246 136.006 35.4212Z" stroke="url(#paint2_linear_669_6901)" stroke-width="2" mask="url(#path-1-outside-1_669_6901)"/>
<defs>
<linearGradient id="paint0_linear_669_6901" x1="4.24731" y1="38.6148" x2="245.833" y2="38.6148" gradientUnits="userSpaceOnUse">
<stop stop-color="#FF914D"/>
<stop offset="1" stop-color="#99572E"/>
</linearGradient>
<linearGradient id="paint1_linear_669_6901" x1="4.24731" y1="38.6148" x2="245.833" y2="38.6148" gradientUnits="userSpaceOnUse">
<stop stop-color="#FF914D"/>
<stop offset="1" stop-color="#99572E"/>
</linearGradient>
<linearGradient id="paint2_linear_669_6901" x1="4.24731" y1="38.6148" x2="245.833" y2="38.6148" gradientUnits="userSpaceOnUse">
<stop stop-color="#FF914D"/>
<stop offset="1" stop-color="#99572E"/>
</linearGradient>
</defs>
</svg>
