<svg width="2002" height="610" viewBox="0 0 2002 610" fill="none" xmlns="http://www.w3.org/2000/svg">
<path fill-rule="evenodd" clip-rule="evenodd" d="M271.029 1.5C234.057 1.5 199.091 8.94866 166.182 23.8575C133.362 38.7256 104.619 58.9917 79.9869 84.6445C55.8617 109.791 36.6368 139.277 22.3032 173.056L22.2892 173.089C8.42647 206.455 1.5 241.614 1.5 278.529C1.5 315.443 8.42636 350.845 22.2793 384.7L22.2942 384.737L22.2978 384.746L22.3136 384.782C36.6461 418.046 55.8586 447.507 79.9521 473.132L79.9824 473.165L79.9897 473.172L80.0207 473.204C104.65 498.341 133.382 518.341 166.182 533.2C199.091 548.109 234.057 555.557 271.029 555.557H648.435L691.547 608.49H912.647L866.933 551.942L867.768 551.795C897.186 546.604 924.728 536.554 950.366 521.644L950.369 521.642C979.068 505.243 1003.95 484.73 1024.99 460.107C1046.02 435.492 1062.43 407.801 1074.22 377.061L1074.22 377.057C1077.29 369.251 1079.98 361.349 1082.28 353.353L1083.26 353.491V547.994H2000.5V356.903H1331.88V9.06045H1083.26V203.953L1082.28 204.092C1079.24 193.588 1075.53 183.249 1071.15 173.076L1071.14 173.068C1057.31 139.28 1038.08 109.792 1013.46 84.6483L1013.45 84.641C989.319 58.9854 960.827 38.722 928.015 23.8575C895.106 8.94866 860.14 1.5 823.168 1.5H271.029ZM165.769 22.9466C198.812 7.97757 233.919 0.5 271.029 0.5H823.168C860.278 0.5 895.385 7.97757 928.428 22.9466C961.355 37.8632 989.954 58.2013 1014.18 83.9528C1038.89 109.189 1058.19 138.784 1072.06 172.681C1076 181.824 1079.4 191.101 1082.26 200.513V8.06045H1332.88V355.903H2001.5V548.994H1082.26V356.949C1080.18 363.843 1077.81 370.667 1075.15 377.419C1063.32 408.264 1046.85 436.053 1025.75 460.757C1004.63 485.468 979.664 506.055 950.868 522.509C950.867 522.509 950.866 522.51 950.865 522.51L950.617 522.076L950.868 522.509C950.867 522.509 950.868 522.509 950.868 522.509C925.37 537.337 897.995 547.378 868.776 552.631L868.244 551.973L867.855 552.287L867.942 552.779C868.22 552.73 868.498 552.681 868.776 552.631L914.741 609.49H691.072L647.96 556.557H648.198V556.057L647.81 556.373L647.96 556.557H271.029C233.919 556.557 198.812 549.08 165.769 534.111C132.86 519.202 104.025 499.131 79.3063 473.904L79.2681 473.865L79.2608 473.857L79.2235 473.817C55.0479 448.105 35.7722 418.545 21.3952 385.178L21.3759 385.133L21.3723 385.124L21.3538 385.079C7.45117 351.103 0.5 315.571 0.5 278.529C0.5 241.486 7.45131 206.195 21.3657 172.706L21.3826 172.665C35.761 138.781 55.0514 109.191 79.2654 83.952C103.987 58.2062 132.835 37.8664 165.769 22.9466ZM269.889 228.237C283.586 214.542 300.254 207.714 320.192 207.714H774.005C793.943 207.714 810.611 214.542 824.308 228.237C838.006 241.931 844.836 258.595 844.836 278.529C844.836 298.462 838.006 315.126 824.308 328.821C810.611 342.515 793.943 349.343 774.005 349.343H702.17L640.156 272.977L418.973 272.176L481.78 349.343H320.192C300.254 349.343 283.586 342.515 269.889 328.821C256.191 315.126 249.362 298.462 249.362 278.529C249.362 258.595 256.191 241.931 269.889 228.237ZM320.192 208.714C300.512 208.714 284.101 215.442 270.596 228.944C257.091 242.446 250.362 258.853 250.362 278.529C250.362 298.204 257.091 314.612 270.596 328.114C284.101 341.616 300.512 348.343 320.192 348.343H479.677L416.863 271.168L640.634 271.979L702.646 348.343H774.005C793.685 348.343 810.096 341.616 823.601 328.114C837.107 314.611 843.836 298.204 843.836 278.529C843.836 258.853 837.107 242.446 823.601 228.944C810.096 215.442 793.685 208.714 774.005 208.714H320.192Z" fill="#FF914D"/>
</svg>
