<svg width="300" height="149" viewBox="0 0 300 149" fill="none" xmlns="http://www.w3.org/2000/svg">
<path fill-rule="evenodd" clip-rule="evenodd" d="M105.393 87.9876H134.626H135.613L134.993 87.2196L129.714 80.6885L129.153 79.9946C129.447 79.9532 129.741 79.9085 130.032 79.8605C134.371 79.1458 138.421 77.6941 142.183 75.5054C146.27 73.1696 149.811 70.2498 152.804 66.7461C155.796 63.2423 158.132 59.3006 159.811 54.9209C160.632 52.8347 161.26 50.7005 161.697 48.5182V33.3333C161.186 30.7914 160.411 28.3155 159.373 25.9054C157.402 21.0878 154.665 16.8906 151.161 13.3138C147.73 9.66409 143.679 6.7808 139.007 4.66394C134.336 2.54709 129.372 1.48867 124.117 1.48867H44.1872C38.9316 1.48867 33.9679 2.54709 29.2962 4.66394C24.6246 6.7808 20.5369 9.66409 17.0331 13.3138C13.6023 16.8906 10.865 21.0878 8.82118 25.9054C6.85032 30.6501 5.86489 35.6503 5.86489 40.9059C5.86489 46.1615 6.85032 51.1982 8.82118 56.0158C10.865 60.7605 13.6023 64.9577 17.0331 68.6074C20.5369 72.1842 24.6246 75.031 29.2962 77.1478C33.9679 79.2647 38.9316 80.3231 44.1872 80.3231H99.1523L105.393 87.9876ZM161.697 30.1076C161.255 28.5837 160.716 27.0838 160.081 25.6081C158.075 20.7075 155.287 16.4297 151.715 12.782C148.215 9.06013 144.083 6.12058 139.324 3.96444C134.551 1.80134 129.479 0.720703 124.117 0.720703H44.1872C38.825 0.720703 33.753 1.80134 28.9793 3.96444C24.2199 6.12103 20.0514 9.06081 16.4791 12.782L16.4789 12.7822C12.98 16.43 10.1924 20.7069 8.11421 25.6055L8.11419 25.6055L8.11197 25.6109C6.10142 30.4511 5.09692 35.5515 5.09692 40.9059C5.09692 46.2602 6.1014 51.3957 8.11039 56.3066L8.11307 56.3131L8.11587 56.3196C10.1939 61.1437 12.9797 65.4166 16.4735 69.1334L16.479 69.1392L16.4845 69.1448C20.0564 72.7912 24.2232 75.6922 28.9793 77.8473C33.753 80.0104 38.825 81.0911 44.1872 81.0911H98.7873L104.798 88.4725L105.028 88.7555H105.393H135.613H137.221L136.211 87.5048L130.586 80.5451C134.853 79.7921 138.848 78.334 142.566 76.1707C146.728 73.7922 150.337 70.8166 153.387 67.2448C156.437 63.6742 158.817 59.6576 160.527 55.1989C160.972 54.0665 161.362 52.9202 161.697 51.7602V79.228V79.9959H162.465H293.855H294.623V79.228V52.9498V52.1819H293.855H197.832V2.5834V1.81543H197.064H162.465H161.697V2.5834V30.1076ZM162.465 48.5938C162.959 46.0919 163.207 43.529 163.207 40.9059C163.207 38.2956 162.959 35.7458 162.465 33.2572V3.35136V2.5834H163.232H196.296H197.064V3.35136V52.1819V52.9498H197.832H293.087H293.855V53.7178V78.46V79.228H293.087H163.232H162.465V78.46V48.5938ZM97.2909 40.7964L68.0641 40.6905L67.0711 40.6869L67.6978 41.4571L75.534 51.0871L76.1589 51.8551H75.1688H51.3042C48.2384 51.8551 45.6471 50.7967 43.5302 48.6798C41.4134 46.563 40.355 43.9717 40.355 40.9059C40.355 37.8401 41.4134 35.2488 43.5302 33.1319C45.6471 31.0151 48.2384 29.9567 51.3042 29.9567H117C120.065 29.9567 122.657 31.0151 124.774 33.1319C126.89 35.2488 127.949 37.8401 127.949 40.9059C127.949 43.9717 126.89 46.563 124.774 48.6798C122.657 50.7967 120.065 51.8551 117 51.8551H106.269L97.2909 40.7964ZM66.4754 41.1716L74.5439 51.0871H51.3042C48.4366 51.0871 46.0423 50.1058 44.0733 48.1368C42.1043 46.1678 41.1229 43.7735 41.1229 40.9059C41.1229 38.0383 42.1043 35.644 44.0733 33.675C46.0423 31.706 48.4366 30.7246 51.3042 30.7246H117C119.867 30.7246 122.261 31.706 124.23 33.675C126.199 35.644 127.181 38.0383 127.181 40.9059C127.181 43.7735 126.199 46.1678 124.23 48.1368C122.261 50.1058 119.867 51.0871 117 51.0871H106.635L97.8872 40.3123L97.6577 40.0298L97.2937 40.0284L67.0738 39.9189L65.4513 39.9131L66.4754 41.1716Z" fill="url(#paint0_linear_665_7496)"/>
<defs>
<linearGradient id="paint0_linear_665_7496" x1="5.09692" y1="44.7381" x2="12" y2="44.7381" gradientUnits="userSpaceOnUse">
<stop stop-color="#FF914D"/>
<stop offset="1" stop-color="#99572E" stop-opacity="0"/>
</linearGradient>
</defs>
</svg>
