<svg width="424" height="278" viewBox="0 0 424 278" fill="none" xmlns="http://www.w3.org/2000/svg">
<path d="M321.087 13.1602H146.548C141.091 13.1602 136.668 17.579 136.668 23.03V236.054C136.668 241.505 141.091 245.923 146.548 245.923H321.087C326.544 245.923 330.967 241.505 330.967 236.054V23.03C330.967 17.579 326.544 13.1602 321.087 13.1602Z" fill="#81BAEF" stroke="black" stroke-width="1.78698"/>
<path d="M312.854 13.1602H138.315C132.858 13.1602 128.435 17.579 128.435 23.03V236.054C128.435 241.505 132.858 245.923 138.315 245.923H312.854C318.311 245.923 322.734 241.505 322.734 236.054V23.03C322.734 17.579 318.311 13.1602 312.854 13.1602Z" fill="#E2F1FF" stroke="black" stroke-width="1.78698"/>
<path d="M286.509 57.5742H208.295C206.931 57.5742 205.825 58.6789 205.825 60.0417C205.825 61.4044 206.931 62.5091 208.295 62.5091H286.509C287.873 62.5091 288.979 61.4044 288.979 60.0417C288.979 58.6789 287.873 57.5742 286.509 57.5742Z" fill="white" stroke="black" stroke-width="1.78698"/>
<path d="M259.34 65.7988H208.295C206.931 65.7988 205.825 66.9035 205.825 68.2663C205.825 69.629 206.931 70.7337 208.295 70.7337H259.34C260.704 70.7337 261.81 69.629 261.81 68.2663C261.81 66.9035 260.704 65.7988 259.34 65.7988Z" fill="white" stroke="black" stroke-width="1.78698"/>
<path d="M286.509 111.035H208.295C206.931 111.035 205.825 112.14 205.825 113.503C205.825 114.865 206.931 115.97 208.295 115.97H286.509C287.873 115.97 288.979 114.865 288.979 113.503C288.979 112.14 287.873 111.035 286.509 111.035Z" fill="white" stroke="black" stroke-width="1.78698"/>
<path d="M259.34 119.261H208.295C206.931 119.261 205.825 120.365 205.825 121.728C205.825 123.091 206.931 124.196 208.295 124.196H259.34C260.704 124.196 261.81 123.091 261.81 121.728C261.81 120.365 260.704 119.261 259.34 119.261Z" fill="white" stroke="black" stroke-width="1.78698"/>
<path d="M286.509 163.675H208.295C206.931 163.675 205.825 164.78 205.825 166.142C205.825 167.505 206.931 168.61 208.295 168.61H286.509C287.873 168.61 288.979 167.505 288.979 166.142C288.979 164.78 287.873 163.675 286.509 163.675Z" fill="white" stroke="black" stroke-width="1.78698"/>
<path d="M259.34 171.899H208.295C206.931 171.899 205.825 173.004 205.825 174.367C205.825 175.73 206.931 176.834 208.295 176.834H259.34C260.704 176.834 261.81 175.73 261.81 174.367C261.81 173.004 260.704 171.899 259.34 171.899Z" fill="white" stroke="black" stroke-width="1.78698"/>
<path d="M189.359 43.5918H167.953C162.497 43.5918 158.074 48.0107 158.074 53.4616V74.8462C158.074 80.2972 162.497 84.7161 167.953 84.7161H189.359C194.816 84.7161 199.239 80.2972 199.239 74.8462V53.4616C199.239 48.0107 194.816 43.5918 189.359 43.5918Z" stroke="black" stroke-width="1.78698"/>
<path d="M161.367 53.0502C170.012 56.3402 175.363 65.7987 177.422 70.3224C181.676 60.4526 191.912 37.0118 198.827 22.207" stroke="black" stroke-width="6.25444"/>
<path d="M189.359 97.0537H167.953C162.497 97.0537 158.074 101.473 158.074 106.924V128.308C158.074 133.759 162.497 138.178 167.953 138.178H189.359C194.816 138.178 199.239 133.759 199.239 128.308V106.924C199.239 101.473 194.816 97.0537 189.359 97.0537Z" stroke="black" stroke-width="1.78698"/>
<path d="M189.359 150.515H167.953C162.497 150.515 158.074 154.934 158.074 160.384V181.769C158.074 187.22 162.497 191.639 167.953 191.639H189.359C194.816 191.639 199.239 187.22 199.239 181.769V160.384C199.239 154.934 194.816 150.515 189.359 150.515Z" stroke="black" stroke-width="1.78698"/>
<path d="M54.9249 94.4776L141.565 60.0068L168.199 63.0416L152.313 84.5609L64.7182 119.121C49.0872 125.666 43.3074 118.809 42.3714 114.563C38.9083 102.781 49.2974 96.2632 54.9249 94.4776Z" fill="#81CBD0" stroke="black" stroke-width="1.69938" stroke-linecap="round" stroke-linejoin="round"/>
<path d="M64.2177 118.997L54.416 94.7773L67.7555 89.2148L77.5571 114.072L64.2177 118.997Z" fill="#F9EABC"/>
<path d="M152.347 84.6475L142.025 60.2051L168.075 63.2608L152.347 84.6475Z" fill="#F9EABC"/>
<path d="M159.502 74.282L154.259 61.6797L168.075 63.425L159.502 74.282Z" fill="black"/>
<path d="M54.9249 94.4776L141.565 60.0068L168.199 63.0416L152.313 84.5609L64.7182 119.121C49.0872 125.666 43.3074 118.809 42.3714 114.563C38.9083 102.781 49.2974 96.2632 54.9249 94.4776Z" stroke="black" stroke-width="1.78698" stroke-linecap="round" stroke-linejoin="round"/>
<path d="M141.812 59.9834L152.33 84.5005" stroke="black" stroke-width="1.78698" stroke-linecap="round" stroke-linejoin="round"/>
<path d="M107.745 39.0574C130.898 36.5941 131.321 52.4015 128.638 60.6131C140.83 77.0011 109.376 80.3038 99.5248 76.8074C91.0044 73.7835 83.6458 80.1463 79.8783 83.8699C65.7645 97.8201 77.3736 110.793 87.391 116.222C94.5743 120.115 106.796 118.373 106.618 114.619C105.797 97.2377 122.13 86.7881 129.836 84.5641C141.07 83.332 141.139 91.8061 139.769 96.1973C137.369 103.888 131.933 114.619 126.754 124.254C114.835 146.426 86.9678 149.231 74.5234 147.863C73.445 150.493 49.4268 183.279 41.5494 190.236C17.6696 179.677 10.5333 145.041 9.44873 133.921C12.7367 125.572 37.4373 105.477 47.9405 96.1249C52.8088 79.7365 62.0143 66.2112 69.9315 57.98C73.3324 54.4442 78.1517 51.0002 82.6537 48.2729C86.2227 46.1111 92.6906 44.4395 97.6057 44.4395C99.5248 42.7518 100.682 39.809 107.745 39.0574Z" fill="#FFCBD7" stroke="black" stroke-width="1.78698" stroke-linecap="round" stroke-linejoin="round"/>
<path d="M32.9362 109.282C25.4983 101.069 19.4681 101.163 15.3972 104.17C8.06712 109.584 8.82884 125.814 9.3965 134.145C10.6602 148.08 18.4927 178.738 39.7134 189.9C47.03 193.748 64.2547 198.058 57.9912 171.073" stroke="white" stroke-width="1.78698" stroke-linecap="round" stroke-linejoin="round"/>
<path d="M126.624 97.3672C130.286 90.2165 137.08 92.5071 139.778 94.4762C138.114 102.749 134.558 109.264 132.729 111.047C123.817 107.777 124.612 100.225 126.624 97.3672Z" fill="white" stroke="black" stroke-width="1.78698" stroke-linecap="round" stroke-linejoin="round"/>
<path d="M117.272 57.8365C123.595 58.984 126.392 62.303 126.726 64.5104C126.037 69.6941 113.534 67.749 111.718 64.8845C107.322 54.8408 113.288 57.1133 117.272 57.8365Z" fill="white" stroke="black" stroke-width="1.78698" stroke-linecap="round" stroke-linejoin="round"/>
<path d="M97.5293 44.3617C109.914 42.5672 125.777 43.4862 129.171 57.5999" stroke="black" stroke-width="1.78698" stroke-linecap="round" stroke-linejoin="round"/>
<path d="M128.94 61.1246C126.688 58.4247 103.853 54.2489 92.7177 52.4986C86.3182 51.4926 77.1202 52.7889 74.4336 54.1392" stroke="black" stroke-width="1.78698" stroke-linecap="round" stroke-linejoin="round"/>
<path d="M92.0476 76.4307C89.5077 77.5795 84.4683 78.3925 80.6792 83.0563L98.3121 76.8218L92.0476 76.4307Z" fill="black" stroke="black" stroke-width="0.849693" stroke-linecap="round" stroke-linejoin="round"/>
<path d="M75.2151 104.198C76.9525 106.376 81.5048 113.012 86.9595 115.539C80.8868 108.976 75.2151 102.243 74.8237 92.0742L73.2578 97.5495L75.2151 104.198Z" fill="black" stroke="black" stroke-width="0.849693" stroke-linecap="round" stroke-linejoin="round"/>
<path d="M377.074 4.1496C377.076 4.12865 377.093 4.1123 377.114 4.1123C377.135 4.1123 377.152 4.12866 377.154 4.1496C377.662 10.5697 382.916 15.6557 389.412 15.9058C389.417 15.906 389.421 15.9102 389.421 15.9154C389.421 15.9206 389.417 15.9248 389.412 15.9251C382.828 16.1785 377.52 21.4 377.136 27.9434C377.136 27.9551 377.126 27.9644 377.114 27.9644C377.102 27.9644 377.092 27.9551 377.092 27.9434C376.724 21.6631 371.819 16.6004 365.604 15.9795C365.571 15.9762 365.545 15.9485 365.545 15.9154C365.545 15.8823 365.571 15.8546 365.604 15.8513C371.733 15.239 376.587 10.3082 377.074 4.1496Z" fill="#E4F338"/>
<path d="M80.7702 187.556C80.7715 187.54 80.7854 187.526 80.8021 187.526C80.8188 187.526 80.8326 187.54 80.8339 187.556C81.2365 192.648 85.4041 196.681 90.5555 196.88C90.5596 196.88 90.5629 196.883 90.5629 196.887C90.5629 196.891 90.5596 196.895 90.5555 196.895C85.3341 197.096 81.1236 201.237 80.8197 206.427C80.8191 206.436 80.8114 206.444 80.8021 206.444C80.7928 206.444 80.785 206.436 80.7845 206.427C80.4928 201.446 76.6025 197.431 71.6732 196.938C71.6471 196.936 71.627 196.913 71.627 196.887C71.627 196.862 71.6471 196.839 71.6732 196.837C76.5337 196.351 80.384 192.44 80.7702 187.556Z" fill="#E4F338"/>
<path d="M103.654 206.489C103.655 206.463 103.677 206.443 103.702 206.443C103.728 206.443 103.748 206.463 103.751 206.489C104.363 214.236 110.704 220.375 118.544 220.676C118.55 220.677 118.555 220.682 118.555 220.689C118.555 220.695 118.55 220.7 118.544 220.7C110.598 221.006 104.191 227.308 103.728 235.205C103.728 235.219 103.716 235.23 103.702 235.23C103.687 235.23 103.676 235.219 103.675 235.205C103.231 227.626 97.3108 221.515 89.8105 220.766C89.7702 220.762 89.7397 220.728 89.7397 220.689C89.7397 220.649 89.7702 220.615 89.8105 220.612C97.2063 219.872 103.066 213.921 103.654 206.489Z" fill="#E4F338"/>
<path d="M312.029 208.728V162.576H237.315V208.728H312.029Z" fill="#FFFB93" stroke="black" stroke-width="1.78698" stroke-linecap="round" stroke-linejoin="round"/>
<path d="M245.344 180.946H270.043C270.952 180.946 271.689 181.683 271.689 182.591C271.689 183.5 270.952 184.236 270.043 184.236H245.344C244.434 184.236 243.697 183.5 243.697 182.591C243.697 181.683 244.434 180.946 245.344 180.946Z" fill="white" stroke="black" stroke-width="1.78698"/>
<path d="M255.223 187.526H270.043C270.952 187.526 271.689 188.263 271.689 189.171C271.689 190.08 270.952 190.816 270.043 190.816H255.223C254.314 190.816 253.577 190.08 253.577 189.171C253.577 188.263 254.314 187.526 255.223 187.526Z" fill="white" stroke="black" stroke-width="1.78698"/>
<path d="M305.465 201.459V168.797H278.166V201.459H305.465Z" fill="#FFD976" stroke="black" stroke-width="1.78698" stroke-linecap="round" stroke-linejoin="round"/>
<path fill-rule="evenodd" clip-rule="evenodd" d="M304.746 169.152C299.717 168.087 289.085 168.797 286.786 180.158L283.912 183.353L286.786 185.128L288.582 196.489H295.766L297.562 201.459H305.464V169.862L304.746 169.152ZM293.611 180.158C292.222 180.158 291.096 179.681 291.096 179.092C291.096 178.504 292.222 178.028 293.611 178.028C295 178.028 296.125 178.504 296.125 179.092C296.125 179.681 295 180.158 293.611 180.158Z" fill="white"/>
<path d="M305.465 201.459V168.797H278.166V201.459H305.465Z" stroke="black" stroke-width="1.78698" stroke-linecap="round" stroke-linejoin="round"/>
<path d="M305.922 157.25C313.465 154.765 326.036 168.966 331.424 176.422C334.873 181.346 338.968 191.687 338.968 197.013C338.968 212.989 321.008 212.633 313.824 209.438C298.306 203.19 292.75 208.965 291.912 212.633C289.039 222.574 312.746 231.686 324.959 235C349.384 242.455 364.112 228.886 367.704 219.024C370.29 211.924 410.003 217.841 416.469 219.024C421.786 200.624 422.192 173.463 418.241 163.996C404.448 167.404 373.212 165.416 372.014 163.996C366.985 148.73 339.948 123 327.735 119.804C317.965 117.248 313.367 124.419 313.008 126.55C301.873 124.775 298.378 133.109 298.019 135.239C296.295 140.067 286.285 144.351 281.496 145.89C269.714 148.73 269.163 154.647 270.361 157.25C274.096 167.475 295.624 161.511 305.922 157.25Z" fill="#FFCBD7" stroke="black" stroke-width="1.78698" stroke-linecap="round" stroke-linejoin="round"/>
<path d="M280.111 155.501C286.984 154.395 286.924 148.019 286.068 145.011C274.905 147.034 273.161 149.626 273.39 151.994C273.72 155.398 278.007 155.75 280.111 155.501Z" fill="white" stroke="black" stroke-width="1.78698" stroke-linecap="round" stroke-linejoin="round"/>
<path d="M295.417 216.41C293.331 219.138 296.25 222.262 297.971 223.484C300.921 225.399 305.29 228.63 307.98 228.085C310.594 227.554 313.725 222.338 309.536 219.736C299.926 213.768 296.868 214.511 295.417 216.41Z" fill="white" stroke="black" stroke-width="1.78698" stroke-linecap="round" stroke-linejoin="round"/>
<path d="M313.007 126.549C318.755 127.259 335.278 128.679 345.793 144.114" stroke="black" stroke-width="1.78698" stroke-linecap="round" stroke-linejoin="round"/>
<path d="M293.251 140.395C298.353 136.754 309.82 132.902 321.367 136.693C328.812 139.138 336.715 143.946 346.511 156.895" stroke="black" stroke-width="1.78698" stroke-linecap="round" stroke-linejoin="round"/>
<path d="M378.369 215.577C382.251 236.863 396.168 243.11 401.768 241.1C411.854 237.481 416.431 219.116 418.581 209.63C421.822 193.662 424.906 153.909 403.048 137.382C395.392 131.593 376.99 131.087 375.711 165" stroke="white" stroke-width="1.78698" stroke-linecap="round" stroke-linejoin="round"/>
<path d="M345.787 107.335C349.463 100.296 359.783 95.4087 370.763 111.284C371.785 103.532 370.763 80.604 390.063 102.41C384.958 90.3718 379.218 65.8681 397.109 64.1543" stroke="white" stroke-width="1.78698" stroke-linecap="round" stroke-linejoin="round"/>
<path d="M391.288 74.4731C393.432 72.2288 399.253 69.0868 405.38 74.4731" stroke="white" stroke-width="1.78698" stroke-linecap="round" stroke-linejoin="round"/>
</svg>
