<svg width="489" height="313" viewBox="0 0 489 313" fill="none" xmlns="http://www.w3.org/2000/svg">
<path d="M393.483 58.5491H135.184C129.07 58.5491 124.114 63.5053 124.114 69.619V254.118C124.114 260.232 129.07 265.188 135.184 265.188H393.483C399.597 265.188 404.553 260.232 404.553 254.118V69.619C404.553 63.5053 399.597 58.5491 393.483 58.5491Z" fill="white" stroke="black" stroke-width="1.84499"/>
<path d="M393.483 50.2466H135.184C129.07 50.2466 124.114 55.2028 124.114 61.3165V245.816C124.114 251.929 129.07 256.886 135.184 256.886H393.483C399.597 256.886 404.553 251.929 404.553 245.816V61.3165C404.553 55.2028 399.597 50.2466 393.483 50.2466Z" fill="white" stroke="black" stroke-width="1.84499"/>
<path d="M171.432 92.4113L191.618 112.598" stroke="black" stroke-width="1.84499"/>
<path d="M191.619 92.0291L171.433 112.215" stroke="black" stroke-width="1.84499"/>
<path d="M202.065 103.29C219.747 106.673 245.884 119.806 245.884 149.876C245.884 161.869 234.814 156.795 234.814 148.031C234.814 142.957 238.965 139.267 277.71 149.876C277.71 149.876 317.377 159.101 318.761 180.319C323.374 213.067 331.676 220.816 359.351 213.067" stroke="black" stroke-width="1.84499" stroke-dasharray="3.69 3.69"/>
<path d="M366.73 215.373C369.787 215.373 372.265 212.895 372.265 209.838C372.265 206.781 369.787 204.303 366.73 204.303C363.673 204.303 361.195 206.781 361.195 209.838C361.195 212.895 363.673 215.373 366.73 215.373Z" fill="black"/>
<path d="M366.731 220.908C372.845 220.908 377.801 215.952 377.801 209.838C377.801 203.724 372.845 198.768 366.731 198.768C360.617 198.768 355.661 203.724 355.661 209.838C355.661 215.952 360.617 220.908 366.731 220.908Z" stroke="black" stroke-width="1.84499"/>
<mask id="mask0_212_6934" style="mask-type:luminance" maskUnits="userSpaceOnUse" x="0" y="38" width="241" height="241">
<path d="M240.349 38.2542H0.5V278.103H240.349V38.2542Z" fill="white"/>
</mask>
<g mask="url(#mask0_212_6934)">
<path d="M106.017 141.201C92.3088 134.507 94.1722 145.628 90.0297 144.131C84.2595 125.831 100.584 127.613 111.419 127.773C122.254 127.934 115.005 127.111 123.208 132.181C137.23 140.845 135.317 153.845 123.208 149.994C113.521 146.913 112.986 144.603 106.017 141.201Z" fill="#FFCBD7" stroke="black" stroke-width="1.84499"/>
<path d="M142.998 141.811C123.814 132.508 111.007 140.791 105.209 138.71C100.972 116.411 119.696 114.65 134.859 114.873C150.023 115.096 155.576 122.23 167.057 129.275C186.681 141.316 184.005 159.382 167.057 154.031C153.499 149.75 152.75 146.538 142.998 141.811Z" fill="#FFCBD7" stroke="black" stroke-width="1.84499"/>
<path d="M137.839 150.101L153.342 176.952L208.468 145.125L192.965 118.274L137.839 150.101Z" fill="#FFB36B" stroke="black" stroke-width="1.84499" stroke-linejoin="round"/>
<path d="M143.462 164.749C147.671 172.04 145.104 181.622 137.813 185.83L124.449 193.547C117.159 197.755 107.577 195.188 103.368 187.898C99.1588 180.608 101.726 171.026 109.017 166.818L122.381 159.101C129.714 154.733 139.136 157.257 143.462 164.749Z" fill="#FB6459" stroke="black" stroke-width="1.84499"/>
<path d="M152.812 176.824L128.35 190.946L113.229 164.759L137.692 150.635L152.812 176.824Z" fill="#DEDFE3" stroke="black" stroke-width="1.84499"/>
<path d="M208.442 145.2L230.779 116.78C232.09 115.077 230.645 112.806 228.673 113.134L192.894 118.268L208.442 145.2Z" fill="#FFDAB8" stroke="black" stroke-width="1.84499" stroke-linejoin="round"/>
<path d="M226.351 122.44L220.91 114.355L229.6 112.87C231.368 112.659 232.537 114.684 231.471 116.11L226.351 122.44Z" fill="#4F5054" stroke="black" stroke-width="1.84499" stroke-linejoin="round"/>
<path d="M171.738 177.294C171.738 188.267 153.846 206.025 139.24 212.972C120.955 221.668 89.9363 221.139 73.8113 219.192C68.2644 217.579 57.0152 261.073 53.0654 257.2C33.2747 240.401 26.9985 215.691 24.3761 202.448C19.4338 183.698 90.7806 104.507 121.818 105.702C144.015 105.702 163.621 117.328 167.789 121.842C180.111 135.191 168.03 142.897 158.049 139.834C135.398 132.883 132.671 128.987 121.818 137.804C91.1945 162.685 112.236 179.428 124.979 181.019C142.178 183.165 154.842 167.974 161.545 166.71C166.739 165.729 171.738 169.222 171.738 177.294Z" fill="#FFCBD7" stroke="black" stroke-width="1.84499"/>
<path d="M163.151 131.368C158.231 127.192 162.752 119.716 163.151 118.459C172.372 126.532 172.643 129.2 171.487 131.368C169.957 134.238 164.716 132.695 163.151 131.368Z" fill="white" stroke="black" stroke-width="1.84499" stroke-linecap="round" stroke-linejoin="round"/>
<path d="M168.061 171.266C162.833 166.71 160.141 173.562 159.143 176.853C163.5 183.536 167.266 185.041 169.172 185.674C173.748 177.777 170.667 173.537 168.061 171.266Z" fill="white" stroke="black" stroke-width="1.84499" stroke-linecap="round" stroke-linejoin="round"/>
<path d="M58.7095 146.821C48.734 131.479 39.3841 132.925 33.2587 136.769C22.2294 143.692 21.5476 166.913 21.4492 178.852C21.7322 198.855 29.5506 243.416 58.5594 261.637C66.0796 265.55 90.9559 261.637 83.7043 220.59" stroke="black" stroke-width="1.84499" stroke-linecap="round" stroke-linejoin="round"/>
<path d="M132.734 132.505C129.955 133.763 127.253 132.218 123.107 137.325L140.272 133.998L132.734 132.505Z" fill="black" stroke="black" stroke-width="0.922495" stroke-linecap="round" stroke-linejoin="round"/>
<path d="M41.0252 244.172C43.353 246.144 47.5607 255.702 53.9522 257.258L56.784 252.924C56.784 252.924 49.2099 248.577 44.9441 243.778C40.6783 238.979 28.8154 219.239 28.8154 219.239L34.363 231.953L41.0252 244.172Z" fill="black" stroke="black" stroke-width="0.922495" stroke-linecap="round" stroke-linejoin="round"/>
<path d="M123.052 137.009C120.272 138.267 118.283 140.823 114.138 145.93L126.887 137.339L123.052 137.009Z" fill="black" stroke="black" stroke-width="0.922495" stroke-linecap="round" stroke-linejoin="round"/>
<path d="M108.406 171.051C110.228 173.498 114.029 176.951 119.903 179.912L107.107 167.576L108.406 171.051Z" fill="black" stroke="black" stroke-width="0.922495" stroke-linecap="round" stroke-linejoin="round"/>
<path d="M18.2892 139.004C10.7831 168.096 11.3288 190.299 17.1308 205.912" stroke="black" stroke-width="1.84499"/>
</g>
<path d="M452.902 69.8902C452.902 78.9592 450.213 87.8244 445.175 95.3649C440.136 102.905 432.975 108.783 424.597 112.253C416.218 115.723 406.998 116.632 398.103 114.863C389.209 113.093 381.038 108.726 374.626 102.313C368.213 95.9009 363.846 87.7304 362.076 78.8358C360.307 69.9411 361.216 60.7215 364.686 52.3429C368.156 43.9642 374.034 36.8029 381.574 31.7645C389.115 26.726 397.98 24.0367 407.049 24.0367V69.8902H452.902Z" fill="#FFD976" stroke="black" stroke-width="1.84499"/>
<path d="M411.281 19.8043C423.443 19.8043 435.106 24.6353 443.704 33.2345C452.304 41.8337 457.135 53.4967 457.135 65.6578H411.281V19.8043Z" fill="#FFD976" stroke="black" stroke-width="1.84499"/>
<path d="M77.5806 31.8761C77.5842 31.8315 77.6213 31.7968 77.666 31.7968C77.7107 31.7968 77.7479 31.8315 77.7514 31.8761C78.8302 45.5327 89.9959 56.3515 103.8 56.8834C103.81 56.8838 103.819 56.8929 103.819 56.9039C103.819 56.9149 103.81 56.924 103.8 56.9244C89.8084 57.4635 78.5276 68.5706 77.7131 82.4893C77.7116 82.5142 77.691 82.534 77.666 82.534C77.641 82.534 77.6204 82.5142 77.6189 82.4893C76.8372 69.1301 66.4136 58.361 53.2061 57.0401C53.136 57.0331 53.082 56.9742 53.082 56.9038C53.082 56.8335 53.136 56.7745 53.2061 56.7675C66.2292 55.4651 76.5458 44.9763 77.5806 31.8761Z" fill="#E4F338" stroke="black" stroke-width="1.84499"/>
<path d="M441.391 119.482C441.393 119.455 441.416 119.434 441.443 119.434C441.47 119.434 441.492 119.455 441.494 119.482C442.141 127.675 448.841 134.167 457.123 134.486C457.129 134.486 457.135 134.492 457.135 134.498C457.135 134.505 457.129 134.51 457.123 134.51C448.728 134.834 441.96 141.498 441.471 149.849C441.47 149.864 441.458 149.876 441.443 149.876C441.427 149.876 441.415 149.864 441.414 149.849C440.946 141.834 434.691 135.373 426.767 134.58C426.725 134.576 426.692 134.541 426.692 134.498C426.692 134.456 426.725 134.421 426.767 134.416C434.581 133.635 440.771 127.341 441.391 119.482Z" fill="#E4F338" stroke="black" stroke-width="1.84499"/>
<path d="M464.707 102.854C464.708 102.84 464.72 102.829 464.733 102.829C464.747 102.829 464.759 102.84 464.76 102.854C465.093 107.074 468.544 110.418 472.811 110.583C472.814 110.583 472.817 110.586 472.817 110.589C472.817 110.593 472.814 110.595 472.811 110.595C468.487 110.762 465 114.195 464.748 118.497C464.747 118.505 464.741 118.511 464.733 118.511C464.726 118.511 464.72 118.505 464.719 118.497C464.477 114.368 461.256 111.04 457.174 110.631C457.151 110.629 457.135 110.611 457.135 110.589C457.135 110.568 457.151 110.549 457.174 110.547C461.198 110.144 464.387 106.903 464.707 102.854Z" fill="#E4F338" stroke="black" stroke-width="1.84499"/>
<path fill-rule="evenodd" clip-rule="evenodd" d="M240.935 264.702C240.83 264.432 240.604 264.229 240.327 264.146C230.532 261.225 222.437 253.439 219.598 242.841C215.246 226.601 224.883 209.908 241.123 205.557C257.364 201.206 274.056 210.843 278.408 227.083C281.247 237.68 278.13 248.47 271.108 255.898C270.91 256.109 270.815 256.397 270.859 256.683L272.988 270.662C273.059 271.127 272.769 271.571 272.314 271.692L247.178 278.428C246.724 278.549 246.251 278.31 246.081 277.872L240.935 264.702Z" fill="#F7D573"/>
<path d="M220.49 242.603C223.242 252.877 231.09 260.428 240.591 263.263L240.064 265.03C229.975 262.021 221.634 254 218.707 243.08L220.49 242.603ZM241.363 206.448C225.615 210.668 216.27 226.855 220.49 242.603L218.707 243.08C214.224 226.348 224.154 209.149 240.885 204.666L241.363 206.448ZM277.517 227.321C273.298 211.574 257.111 202.229 241.363 206.448L240.885 204.666C257.617 200.183 274.816 210.112 279.3 226.844L277.517 227.321ZM270.439 255.265C277.25 248.06 280.27 237.597 277.517 227.321L279.3 226.844C282.225 237.764 279.012 248.881 271.779 256.532L270.439 255.265ZM272.077 270.801L269.948 256.823L271.772 256.545L273.901 270.524L272.077 270.801ZM246.94 277.536L272.077 270.801L272.554 272.584L247.418 279.319L246.94 277.536ZM241.795 264.366L246.94 277.536L245.222 278.208L240.076 265.038L241.795 264.366ZM273.901 270.524C274.042 271.453 273.463 272.34 272.554 272.584L272.077 270.801L273.901 270.524ZM271.779 256.532C271.776 256.537 271.774 256.541 271.773 256.543C271.772 256.545 271.772 256.546 271.772 256.545L269.948 256.823C269.861 256.248 270.05 255.676 270.439 255.265L271.779 256.532ZM247.418 279.319C246.51 279.562 245.564 279.084 245.222 278.208L246.94 277.536L247.418 279.319ZM240.591 263.263C241.133 263.424 241.583 263.825 241.795 264.366L240.076 265.038C240.077 265.039 240.077 265.039 240.075 265.037C240.073 265.035 240.07 265.032 240.064 265.03L240.591 263.263Z" fill="black"/>
<path d="M268.212 272.792L259.855 241.605C257.858 235.932 259.45 230.964 264.867 233.577C267.525 234.858 269.657 238.978 258.519 241.963L251.391 243.873" stroke="black" stroke-width="1.84499"/>
<path d="M251.282 277.328L242.925 246.141C241.819 240.23 237.956 236.724 234.571 241.694C232.91 244.133 233.123 248.768 244.261 245.783L251.39 243.873" stroke="black" stroke-width="1.84499"/>
<path d="M273.54 276.448C273.582 275.817 272.991 275.332 272.38 275.495L249.026 281.753C248.415 281.917 248.146 282.632 248.499 283.157L250.127 285.586C250.347 285.915 250.751 286.066 251.132 285.964L272.662 280.195C273.044 280.093 273.318 279.76 273.344 279.366L273.54 276.448Z" fill="#F04F4E" stroke="black" stroke-width="1.84499"/>
<path d="M273.141 285.093C273.144 284.485 272.567 284.041 271.981 284.199L253.722 289.091C253.134 289.249 252.857 289.921 253.163 290.446L254.606 292.925C254.816 293.284 255.24 293.46 255.642 293.352L272.447 288.849C272.85 288.741 273.13 288.378 273.131 287.961L273.141 285.093Z" fill="#F04F4E" stroke="black" stroke-width="1.84499"/>
<path d="M259.639 199.643L270.75 170.171M235.482 199.643L224.37 170.171M214.898 208.818L186.844 187.542" stroke="black" stroke-width="1.84499"/>
<path d="M326.303 199.644C302.426 171.685 303.311 160.776 312.476 156.797C317.993 154.4 326.303 161.557 340.534 177.03C340.534 171.685 346.401 164.524 359.24 171.685C362.485 169.903 369.78 165.514 384.054 177.03C391.626 183.138 425.102 195.815 446.176 196.121C449.333 205.17 452.677 233.543 442.202 262.924C436.857 262.097 417.426 261.444 413.831 262.924C395.443 270.496 355.754 284.544 338.223 254.099C333.533 245.955 320.348 225.412 328.325 218.787C328.889 218.319 333.785 210.217 357.577 235.409C351.929 229.157 341.442 217.371 326.303 199.644Z" fill="#FFCBD7"/>
<path d="M362.485 240.782C334.444 209.127 328.925 218.288 328.325 218.787C320.348 225.412 333.533 245.955 338.223 254.099C355.754 284.544 395.443 270.496 413.831 262.924C417.426 261.444 436.857 262.097 442.202 262.924C452.677 233.543 449.333 205.17 446.176 196.121C425.102 195.815 391.626 183.138 384.054 177.03C369.78 165.514 362.485 169.903 359.24 171.685C346.401 164.524 340.534 171.685 340.534 177.03C326.303 161.557 317.993 154.4 312.476 156.797C303.311 160.776 302.426 171.685 326.303 199.644C350.181 227.603 362.485 240.782 362.485 240.782ZM362.485 240.782C364.839 239.573 370.998 237.881 376.801 240.782" stroke="black" stroke-width="1.84499" stroke-linecap="round" stroke-linejoin="round"/>
<path d="M316.693 170.173C328.194 183.368 333.827 170.533 332.158 168.676C325.506 161.281 318.912 155.192 313.978 159.448C311.188 161.854 315.05 168.523 316.693 170.173Z" fill="white" stroke="black" stroke-width="1.84499" stroke-linecap="round" stroke-linejoin="round"/>
<path d="M336.685 231.654C332.201 219.404 325.549 226.059 326.095 227.837C328.124 234.451 327.941 240.768 334.66 238.582C337.269 237.735 337.382 233.55 336.685 231.654Z" fill="white" stroke="black" stroke-width="1.84499" stroke-linecap="round" stroke-linejoin="round"/>
<path d="M340.492 176.937C346.666 185.47 363.449 202.888 378.361 207.135" stroke="black" stroke-width="1.84499" stroke-linecap="round" stroke-linejoin="round"/>
<path d="M359.284 171.538C366.767 179.554 373.845 185.638 387.37 192.573" stroke="black" stroke-width="1.84499" stroke-linecap="round" stroke-linejoin="round"/>
<path d="M345.514 220.465C362.785 236.293 376.53 239.583 376.53 239.583C376.53 239.583 365.875 237.907 362.301 240.835L345.514 220.465Z" fill="black"/>
<path d="M406.079 266.69C411.414 279.955 424.063 282.072 429.914 279.955C440.448 276.143 445.229 256.793 447.475 246.798C450.862 229.974 454.083 188.091 431.25 170.676C423.253 164.577 413.566 165.583 405.368 187.075" stroke="black" stroke-width="1.84499" stroke-linecap="round" stroke-linejoin="round"/>
<path d="M460.021 204.299C462.914 236.526 458.454 260.024 449.561 275.601" stroke="black" stroke-width="1.84499"/>
</svg>
