<svg width="489" height="323" viewBox="0 0 489 323" fill="none" xmlns="http://www.w3.org/2000/svg">
<path d="M217.55 95.6876H63.1014C57.4168 95.6876 52.8086 100.296 52.8086 105.98V197.596C52.8086 203.28 57.4168 207.889 63.1014 207.889H217.55C223.234 207.889 227.842 203.28 227.842 197.596V105.98C227.842 100.296 223.234 95.6876 217.55 95.6876Z" fill="#96CCDD" stroke="black" stroke-width="1.71547"/>
<path d="M209.244 86.9382H54.7957C49.1112 86.9382 44.5029 91.5465 44.5029 97.231V188.846C44.5029 194.531 49.1112 199.139 54.7957 199.139H209.244C214.928 199.139 219.537 194.531 219.537 188.846V97.231C219.537 91.5465 214.928 86.9382 209.244 86.9382Z" fill="#B3E3F2" stroke="black" stroke-width="1.71547"/>
<path d="M203.38 136.307H60.6596C59.1724 136.307 57.9668 137.513 57.9668 139C57.9668 140.487 59.1724 141.693 60.6596 141.693H203.38C204.867 141.693 206.073 140.487 206.073 139C206.073 137.513 204.867 136.307 203.38 136.307Z" fill="#96CCDD" stroke="black" stroke-width="1.71547"/>
<path d="M203.38 156.054H60.6596C59.1724 156.054 57.9668 157.26 57.9668 158.747C57.9668 160.234 59.1724 161.44 60.6596 161.44H203.38C204.867 161.44 206.073 160.234 206.073 158.747C206.073 157.26 204.867 156.054 203.38 156.054Z" fill="#96CCDD" stroke="black" stroke-width="1.71547"/>
<path fill-rule="evenodd" clip-rule="evenodd" d="M71.8092 100.313C71.2548 98.0383 68.0166 98.0383 67.4623 100.313C67.3796 100.656 67.2173 100.973 66.9887 101.241C66.7599 101.508 66.4714 101.717 66.1464 101.853C65.8214 101.987 65.4693 102.043 65.1184 102.016C64.7677 101.989 64.4283 101.879 64.1278 101.696C62.1266 100.477 59.8365 102.767 61.0559 104.768C61.8436 106.061 61.1448 107.747 59.6746 108.104C57.3975 108.657 57.3975 111.897 59.6746 112.449C60.0165 112.531 60.3342 112.694 60.6016 112.922C60.8689 113.151 61.0784 113.44 61.2131 113.765C61.3477 114.09 61.4036 114.443 61.3764 114.793C61.349 115.144 61.2392 115.483 61.0559 115.784C59.8365 117.785 62.1266 120.075 64.1278 118.855C64.4283 118.672 64.7677 118.563 65.1185 118.535C65.4694 118.509 65.8217 118.564 66.1468 118.699C66.4721 118.834 66.7608 119.043 66.9896 119.31C67.2184 119.578 67.381 119.895 67.4638 120.238C68.0166 122.515 71.2564 122.515 71.8077 120.238C71.8909 119.895 72.0535 119.578 72.2824 119.311C72.5112 119.043 72.7999 118.835 73.125 118.7C73.4501 118.565 73.8023 118.51 74.153 118.536C74.5038 118.564 74.8432 118.672 75.1437 118.855C77.145 120.075 79.435 117.785 78.2156 115.784C78.0326 115.483 77.9231 115.144 77.8959 114.793C77.8688 114.443 77.9248 114.091 78.0594 113.766C78.194 113.441 78.4034 113.152 78.6705 112.923C78.9377 112.694 79.2551 112.531 79.597 112.449C81.874 111.896 81.874 108.656 79.597 108.104C79.2549 108.021 78.9373 107.859 78.67 107.631C78.4026 107.401 78.1931 107.113 78.0584 106.787C77.9239 106.462 77.8679 106.11 77.8952 105.759C77.9225 105.408 78.0323 105.069 78.2156 104.768C79.435 102.767 77.145 100.477 75.1437 101.696C74.8433 101.879 74.5039 101.99 74.153 102.017C73.8021 102.044 73.4498 101.988 73.1246 101.854C72.7995 101.719 72.5107 101.51 72.2818 101.242C72.053 100.975 71.8906 100.657 71.8077 100.315L71.8092 100.313ZM69.6358 114.652C70.7964 114.652 71.9093 114.191 72.7301 113.37C73.5507 112.55 74.0118 111.436 74.0118 110.276C74.0118 109.115 73.5507 108.002 72.7301 107.182C71.9093 106.361 70.7964 105.901 69.6358 105.901C68.4751 105.901 67.3621 106.361 66.5414 107.182C65.7208 108.002 65.2598 109.115 65.2598 110.276C65.2598 111.436 65.7208 112.55 66.5414 113.37C67.3621 114.191 68.4751 114.652 69.6358 114.652Z" fill="#96CCDD" stroke="black" stroke-width="1.90625"/>
<path d="M144.137 147.976C149.095 147.976 153.113 143.957 153.113 139C153.113 134.042 149.095 130.024 144.137 130.024C139.18 130.024 135.161 134.042 135.161 139C135.161 143.957 139.18 147.976 144.137 147.976Z" fill="white" stroke="black" stroke-width="1.71547"/>
<path d="M98.3589 167.724C103.316 167.724 107.335 163.705 107.335 158.748C107.335 153.79 103.316 149.771 98.3589 149.771C93.4016 149.771 89.3828 153.79 89.3828 158.748C89.3828 163.705 93.4016 167.724 98.3589 167.724Z" fill="white" stroke="black" stroke-width="1.71547"/>
<path d="M198.909 67.5621L192.989 57.6313C191.847 55.7161 189.05 55.7864 188.006 57.7566L185.125 63.1946C184.096 65.1377 181.35 65.2398 180.178 63.3787L176.371 57.3282C175.217 55.4944 172.522 55.5603 171.459 57.4483L167.897 63.7746C166.889 65.5657 164.377 65.7396 163.131 64.1044L157.584 56.8209C156.319 55.1607 153.759 55.3707 152.782 57.2147L149.301 63.7838C148.348 65.5837 145.871 65.8375 144.572 64.2685L137.862 56.1646C136.656 54.7076 134.392 54.8025 133.312 56.3556L125.519 67.5621" stroke="black" stroke-width="1.90625" stroke-linecap="round" stroke-linejoin="round"/>
<path d="M134.968 260.273C136.219 262.179 135.673 296.002 135.673 296.002C157.534 299.014 186.763 286.276 193.38 279.763C201.888 264.036 200.019 214.047 195.765 194.508C192.095 177.65 182.365 176.398 176.221 177.352C175.843 166.677 162.207 162.102 156.842 168.773C157.787 144.945 148.471 143.039 144.114 143.039C132.789 143.039 134.496 175.445 134.968 190.695C115.684 200.608 108.657 216.111 107.554 222.625C104.529 240.162 133.717 258.368 134.968 260.273Z" fill="#FFCBD7" stroke="black" stroke-width="1.71547" stroke-linecap="round" stroke-linejoin="round"/>
<path d="M200.823 234.136C216.264 233.221 221.873 240.964 222.33 247.111C223.152 258.178 207.696 270.388 199.622 276.494C185.871 286.416 151.632 303.587 124.684 292.903C118.25 289.722 100.112 276.494 135.343 260.459" stroke="black" stroke-width="1.71547" stroke-linecap="round" stroke-linejoin="round"/>
<path d="M145.691 146.853C151.677 147.057 153.224 152.36 153.4 156.175C153.995 168.955 137.118 165.888 138.737 156.175C140.059 148.246 142.619 146.748 145.691 146.853Z" fill="white" stroke="black" stroke-width="1.71547" stroke-linecap="round" stroke-linejoin="round"/>
<path d="M134.186 191.782C135.356 193.787 134.596 196.8 133.214 198.358C128.588 203.578 121.893 199.639 126.376 196.004C130.036 193.037 133.745 191.024 134.186 191.782Z" fill="white" stroke="black" stroke-width="1.71547" stroke-linecap="round" stroke-linejoin="round"/>
<path d="M134.967 216.43C130.714 218.336 123.151 225.008 134.967 234.062V216.43Z" fill="black" stroke="black" stroke-width="1.71547" stroke-linecap="round" stroke-linejoin="round"/>
<path d="M156.847 168.297C156.847 180.847 156.847 206.327 156.847 207.852" stroke="black" stroke-width="1.71547" stroke-linecap="round" stroke-linejoin="round"/>
<path d="M176.153 177.098C176.153 186.774 176.153 206.422 176.153 207.598" stroke="black" stroke-width="1.71547" stroke-linecap="round" stroke-linejoin="round"/>
<path d="M134.968 190.695V234.063" stroke="black" stroke-width="1.71547" stroke-linecap="round" stroke-linejoin="round"/>
<path d="M384.108 187.656H256.015C250.796 187.656 246.565 191.887 246.565 197.105V288.802C246.565 294.021 250.796 298.252 256.015 298.252H384.108C389.327 298.252 393.557 294.021 393.557 288.802V197.105C393.557 191.887 389.327 187.656 384.108 187.656Z" fill="white" stroke="black" stroke-width="1.90625"/>
<path d="M288.063 238.618H275.268C271.583 238.618 268.596 241.605 268.596 245.289V276.815C268.596 280.5 271.583 283.487 275.268 283.487H288.063C291.747 283.487 294.734 280.5 294.734 276.815V245.289C294.734 241.605 291.747 238.618 288.063 238.618Z" fill="#FFD976" stroke="black" stroke-width="1.90625"/>
<path d="M326.458 218.615H313.663C309.978 218.615 306.991 221.602 306.991 225.287V276.815C306.991 280.5 309.978 283.487 313.663 283.487H326.458C330.143 283.487 333.13 280.5 333.13 276.815V225.287C333.13 221.602 330.143 218.615 326.458 218.615Z" fill="#FFD976" stroke="black" stroke-width="1.90625"/>
<path d="M364.855 202.421H352.061C348.376 202.421 345.389 205.408 345.389 209.093V276.815C345.389 280.5 348.376 283.487 352.061 283.487H364.855C368.54 283.487 371.527 280.5 371.527 276.815V209.093C371.527 205.408 368.54 202.421 364.855 202.421Z" fill="#FFD976" stroke="black" stroke-width="1.90625"/>
<path d="M342.377 40.1278C316.224 22.2384 291.367 55.0658 298.18 60.308C301.116 62.5669 312.803 66.964 325.392 53.0359C329.113 48.9182 336.64 65.5749 331.944 81.1582C328.381 92.9786 305.699 94.441 305.699 89.0054C306.279 80.599 305.337 63.3549 299.522 62.4379C295.081 61.7377 291.349 62.6511 289.625 70.6303C286.762 83.8882 273.848 110.331 320.501 136.899C321.699 136.899 320.734 161.723 320.06 165.309C321.019 167.001 350.868 172.194 377.813 164.173C379.882 126.985 377.028 46.9558 375.145 35.9565C374.333 31.2127 370.164 22.7533 359.983 26.8657C357.896 23.0092 350.179 17.8981 344.164 26.8657C343.297 28.1576 342.377 31.8435 342.377 40.1278Z" fill="#FFCBD7"/>
<path d="M342.377 40.1278L341.838 40.9145C342.13 41.1141 342.508 41.1357 342.821 40.9708C343.134 40.8059 343.33 40.4813 343.33 40.1278H342.377ZM305.699 89.0054L304.747 88.9398C304.746 88.9616 304.745 88.9836 304.745 89.0054H305.699ZM320.501 136.899L320.029 137.727L320.249 137.852H320.501V136.899ZM320.059 165.309L319.122 165.133L319.058 165.476L319.23 165.78L320.059 165.309ZM377.813 164.173L378.086 165.086L378.728 164.894L378.765 164.225L377.813 164.173ZM359.983 26.8656L359.144 27.3194L359.55 28.0684L360.339 27.7495L359.983 26.8656ZM298.761 59.5526C298.251 59.1601 297.934 58.4431 298.001 57.2569C298.07 56.0692 298.527 54.5578 299.385 52.8563C301.094 49.4635 304.28 45.5355 308.496 42.2996C316.907 35.8427 329.202 32.2704 341.838 40.9145L342.914 39.3411C329.399 30.0958 316.188 33.9924 307.335 40.7875C302.919 44.1774 299.535 48.3212 297.682 51.9988C296.758 53.8325 296.187 55.6061 296.099 57.1471C296.009 58.6897 296.406 60.1452 297.599 61.0634L298.761 59.5526ZM297.599 61.0634C299.252 62.335 303.139 64.0693 308.236 63.6926C313.375 63.3129 319.663 60.7959 326.099 53.675L324.685 52.3968C318.532 59.204 312.682 61.4525 308.096 61.7915C303.468 62.1336 300.044 60.5397 298.761 59.5526L297.599 61.0634ZM326.099 53.675C326.381 53.3624 326.594 53.3325 326.778 53.3631C327.037 53.4062 327.441 53.6127 327.952 54.1552C328.966 55.2308 330.055 57.2577 330.915 59.995C332.626 65.439 333.315 73.3016 331.031 80.883L332.856 81.4331C335.267 73.4313 334.541 65.1741 332.734 59.4233C331.834 56.5633 330.637 54.2241 329.34 52.8477C328.696 52.1642 327.937 51.6233 327.091 51.4827C326.169 51.3296 325.333 51.6799 324.685 52.3968L326.099 53.675ZM331.031 80.883C330.223 83.5639 328.317 85.7069 325.819 87.3371C323.318 88.9688 320.273 90.0521 317.307 90.6165C314.335 91.1819 311.517 91.2123 309.488 90.8005C308.467 90.5936 307.715 90.2888 307.242 89.9434C306.788 89.6127 306.652 89.3004 306.652 89.0054H304.745C304.745 90.0694 305.318 90.9003 306.119 91.4839C306.9 92.0528 307.947 92.4331 309.109 92.6687C311.443 93.1422 314.52 93.0873 317.663 92.4891C320.813 91.8896 324.106 90.7307 326.861 88.9336C329.617 87.1351 331.883 84.6626 332.856 81.4331L331.031 80.883ZM306.65 89.0711C306.943 84.8101 306.853 78.3226 305.949 72.7602C305.498 69.9847 304.835 67.3784 303.882 65.3828C302.947 63.4275 301.606 61.8016 299.67 61.4964L299.373 63.3794C300.345 63.5326 301.302 64.4062 302.162 66.2047C303.002 67.9631 303.628 70.365 304.068 73.066C304.944 78.4565 305.033 84.7943 304.747 88.9398L306.65 89.0711ZM299.67 61.4964C297.374 61.1342 295.031 61.1466 293.025 62.4868C291.022 63.8246 289.577 66.3351 288.694 70.4291L290.556 70.8316C291.396 66.9464 292.679 65.0105 294.084 64.0718C295.486 63.1355 297.229 63.0413 299.373 63.3794L299.67 61.4964ZM288.694 70.4291C287.301 76.8731 283.264 87.1127 285.558 98.9542C287.873 110.903 296.551 124.356 320.029 137.727L320.972 136.071C297.799 122.874 289.606 109.821 287.43 98.592C285.234 87.2559 289.085 77.6454 290.556 70.8316L288.694 70.4291ZM320.501 137.852C320.081 137.852 319.867 137.575 319.829 137.521C319.78 137.451 319.775 137.415 319.793 137.469C319.825 137.567 319.867 137.765 319.908 138.092C319.989 138.731 320.046 139.676 320.079 140.86C320.146 143.218 320.117 146.413 320.03 149.734C319.942 153.052 319.795 156.481 319.629 159.301C319.462 162.151 319.278 164.308 319.122 165.133L320.996 165.485C321.178 164.517 321.367 162.226 321.533 159.413C321.7 156.571 321.847 153.121 321.935 149.784C322.024 146.45 322.053 143.215 321.985 140.807C321.951 139.607 321.892 138.586 321.799 137.852C321.754 137.494 321.694 137.155 321.608 136.888C321.567 136.76 321.5 136.583 321.385 136.42C321.28 136.272 320.995 135.946 320.501 135.946V137.852ZM319.23 165.78C319.365 166.017 319.561 166.171 319.69 166.261C319.836 166.362 320.001 166.45 320.169 166.528C320.504 166.684 320.936 166.838 321.438 166.988C322.446 167.29 323.835 167.609 325.531 167.912C328.931 168.519 333.636 169.08 339.148 169.336C350.165 169.846 364.478 169.138 378.086 165.086L377.541 163.259C364.203 167.229 350.12 167.936 339.236 167.431C333.798 167.18 329.176 166.627 325.867 166.035C324.209 165.739 322.899 165.437 321.986 165.162C321.526 165.025 321.191 164.901 320.971 164.799C320.861 164.747 320.801 164.711 320.775 164.694C320.734 164.665 320.813 164.707 320.888 164.839L319.23 165.78ZM378.765 164.225C379.801 145.59 379.604 116.252 378.914 90.2183C378.569 77.1967 378.1 64.9917 377.6 55.3515C377.1 45.7396 376.567 38.6127 376.085 35.7957L374.206 36.1173C374.665 38.7998 375.195 45.8012 375.695 55.4503C376.195 65.0713 376.664 77.2599 377.009 90.2689C377.699 116.296 377.893 145.567 376.862 164.119L378.765 164.225ZM376.085 35.7957C375.657 33.2964 374.345 29.7689 371.719 27.3843C370.39 26.1784 368.722 25.2638 366.681 24.9425C364.644 24.6219 362.298 24.9024 359.625 25.9819L360.339 27.7495C362.757 26.7728 364.751 26.5686 366.385 26.8256C368.014 27.0821 369.349 27.8077 370.437 28.7957C372.643 30.7987 373.822 33.8727 374.206 36.1173L376.085 35.7957ZM360.821 26.412C359.663 24.2729 356.997 21.8307 353.748 21.1253C352.098 20.7667 350.293 20.8577 348.488 21.6711C346.689 22.4817 344.951 23.9804 343.372 26.3348L344.955 27.3966C346.384 25.2671 347.867 24.0419 349.271 23.4091C350.669 22.7793 352.053 22.7076 353.343 22.988C355.979 23.5604 358.215 25.602 359.144 27.3194L360.821 26.412ZM343.372 26.3348C342.82 27.157 342.348 28.5698 342.004 30.7243C341.654 32.9086 341.424 35.9548 341.424 40.1278H343.33C343.33 36.0164 343.559 33.0775 343.887 31.0249C344.219 28.9424 344.639 27.8662 344.955 27.3966L343.372 26.3348Z" fill="black"/>
<path d="M306.072 45.8285C292.476 54.8083 302.422 57.0221 304.658 56.389C308.83 55.2079 318.247 48.7448 314.941 44.966C313.267 43.0525 310.575 42.8552 306.072 45.8285Z" fill="white" stroke="black" stroke-width="1.90625" stroke-linecap="round" stroke-linejoin="round"/>
<path d="M289.818 71.295C287.452 86.3014 295.701 81.0972 296.716 79.1838C298.611 75.6136 300.069 65.0605 295.069 64.79C292.538 64.6531 290.603 66.3264 289.818 71.295Z" fill="white" stroke="black" stroke-width="1.90625" stroke-linecap="round" stroke-linejoin="round"/>
<path d="M335.684 81.3362C339.542 81.2067 348.091 81.5563 351.422 83.9904" stroke="black" stroke-width="1.90625"/>
<path d="M327.779 95.8873C334.947 97.2481 346.539 100.666 353.484 121.408M357.564 119.181C357.9 117.365 359.442 113.508 362.929 112.618" stroke="black" stroke-width="1.90625"/>
<path d="M360.209 26.8533C360.209 26.8533 357.874 54.9845 360.208 83.4116" stroke="black" stroke-width="1.90625"/>
<path d="M342.368 40.0615C342.368 40.0615 341.546 53.3856 343.88 81.8128" stroke="black" stroke-width="1.90625"/>
<path d="M305.878 128.275C293.486 133.235 291.509 144.997 293.486 150.437C297.048 160.233 315.122 164.68 324.458 166.768C340.175 169.917 379.299 172.912 395.566 151.68C401.263 144.244 398.668 134.792 378.593 127.169" stroke="black" stroke-width="1.90625" stroke-linecap="round" stroke-linejoin="round"/>
<path d="M364.159 178.433C334.056 181.123 312.105 176.977 297.554 168.707" stroke="black" stroke-width="1.90625"/>
<path fill-rule="evenodd" clip-rule="evenodd" d="M437.601 187.669C439.425 187.506 441.034 188.857 441.197 190.687L443.848 220.504C444.011 222.334 442.664 223.95 440.841 224.113C439.018 224.277 437.408 222.925 437.246 221.095L435.305 199.276L394.497 248.253C392.433 250.73 389.38 252.161 386.161 252.161H343.74C342.404 252.161 341.145 252.795 340.345 253.87L318.204 283.632C313.23 290.317 302.923 289.149 299.56 281.52L282.061 241.815C280.903 239.189 277.538 238.446 275.389 240.342L213.942 294.532C212.566 295.744 210.472 295.609 209.264 294.229C208.056 292.848 208.191 290.747 209.566 289.534L271.013 235.345C276.525 230.484 285.155 232.39 288.123 239.125L305.622 278.828C306.933 281.804 310.953 282.259 312.892 279.652L335.034 249.89C337.085 247.133 340.312 245.51 343.74 245.51H386.161C387.416 245.51 388.607 244.951 389.411 243.985L430.22 195.009L408.478 196.956C406.654 197.118 405.044 195.768 404.882 193.938C404.719 192.108 406.065 190.492 407.888 190.329L437.601 187.669Z" fill="#DBECFF" stroke="black" stroke-width="1.90625" stroke-linecap="round" stroke-linejoin="round"/>
<path d="M43.3889 16.1514C43.3915 16.1187 43.4188 16.0933 43.4515 16.0933C43.4842 16.0933 43.5115 16.1187 43.5141 16.1514C44.3044 26.1567 52.4848 34.0829 62.5978 34.4727C62.6058 34.4729 62.6123 34.4795 62.6123 34.4876C62.6123 34.4957 62.6058 34.5023 62.5978 34.5027C52.3475 34.8977 44.0827 43.0351 43.486 53.2324C43.4849 53.2506 43.4698 53.2651 43.4515 53.2651C43.4332 53.2651 43.4181 53.2507 43.417 53.2324C42.8443 43.445 35.2076 35.5552 25.5314 34.5874C25.48 34.5823 25.4404 34.5392 25.4404 34.4876C25.4404 34.436 25.48 34.3929 25.5314 34.3877C35.0725 33.4336 42.6308 25.7491 43.3889 16.1514Z" fill="#E4F338" stroke="black" stroke-width="1.90625"/>
<path d="M84.5368 43.7772C84.5387 43.753 84.559 43.734 84.5833 43.734C84.6077 43.734 84.6279 43.753 84.6298 43.7773C85.2175 51.2171 91.3003 57.1109 98.8206 57.4007C98.8263 57.401 98.8311 57.4058 98.8311 57.4118C98.8311 57.4178 98.8263 57.4228 98.8206 57.4231C91.1982 57.7167 85.0527 63.7677 84.6089 71.3503C84.6081 71.3639 84.5969 71.3746 84.5833 71.3746C84.5696 71.3746 84.5584 71.3639 84.5576 71.3503C84.1318 64.0725 78.4531 58.2057 71.258 57.4861C71.2199 57.4823 71.1904 57.4502 71.1904 57.4118C71.1904 57.3735 71.2199 57.3414 71.258 57.3376C78.3528 56.6281 83.973 50.914 84.5368 43.7772Z" fill="#E4F338" stroke="black" stroke-width="1.90625"/>
<path d="M429.568 101.918C429.57 101.894 429.59 101.875 429.615 101.875C429.639 101.875 429.659 101.894 429.661 101.918C430.249 109.358 436.332 115.252 443.852 115.541C443.858 115.541 443.862 115.546 443.862 115.553C443.862 115.559 443.858 115.563 443.852 115.563C436.23 115.857 430.084 121.908 429.64 129.49C429.64 129.505 429.628 129.515 429.615 129.515C429.601 129.515 429.589 129.505 429.589 129.49C429.163 122.213 423.485 116.346 416.289 115.626C416.251 115.623 416.222 115.591 416.222 115.553C416.222 115.514 416.251 115.482 416.289 115.479C423.384 114.769 429.004 109.055 429.568 101.918Z" fill="#E4F338" stroke="black" stroke-width="1.90625"/>
</svg>
