<svg width="489" height="337" viewBox="0 0 489 337" fill="none" xmlns="http://www.w3.org/2000/svg">
<g clip-path="url(#clip0_212_6829)">
<path d="M173.191 288.228C173.193 288.207 173.211 288.189 173.233 288.189C173.255 288.189 173.274 288.207 173.276 288.228C173.814 295.036 179.379 300.428 186.259 300.693C186.265 300.693 186.269 300.698 186.269 300.704C186.269 300.709 186.265 300.714 186.259 300.714C179.286 300.983 173.663 306.518 173.257 313.456C173.256 313.469 173.246 313.479 173.233 313.479C173.221 313.479 173.21 313.469 173.209 313.456C172.82 306.797 167.624 301.429 161.041 300.771C161.007 300.768 160.979 300.738 160.979 300.704C160.979 300.668 161.007 300.639 161.041 300.635C167.532 299.986 172.675 294.759 173.191 288.228Z" fill="#E4F338" stroke="black" stroke-width="1.87332"/>
<path d="M411.59 33.4978C411.593 33.4525 411.631 33.4172 411.676 33.4172C411.722 33.4172 411.759 33.4525 411.763 33.4978C412.858 47.3641 424.195 58.349 438.211 58.8891C438.222 58.8895 438.231 58.8987 438.231 58.9099C438.231 58.9211 438.222 58.9303 438.211 58.9307C424.005 59.4781 412.551 70.7558 411.724 84.8882C411.723 84.9135 411.702 84.9336 411.676 84.9336C411.651 84.9336 411.63 84.9135 411.628 84.8882C410.835 71.3239 400.251 60.3894 386.84 59.0482C386.77 59.0411 386.715 58.9813 386.715 58.9099C386.715 58.8384 386.77 58.7785 386.84 58.7714C400.064 57.449 410.539 46.7991 411.59 33.4978Z" fill="#E4F338" stroke="black" stroke-width="1.87332"/>
<path d="M353.965 70.9232C353.967 70.901 353.986 70.8837 354.007 70.8837C354.03 70.8837 354.049 70.901 354.05 70.9232C354.588 77.7304 360.154 83.1229 367.033 83.388C367.039 83.3883 367.044 83.3928 367.044 83.3983C367.044 83.4037 367.039 83.4082 367.033 83.4085C360.06 83.6772 354.437 89.2135 354.032 96.151C354.031 96.1641 354.02 96.1735 354.007 96.1735C353.995 96.1735 353.985 96.1641 353.984 96.151C353.594 89.4924 348.399 84.1246 341.816 83.4662C341.781 83.4626 341.754 83.4333 341.754 83.3982C341.754 83.3632 341.781 83.3338 341.816 83.3303C348.307 82.6811 353.449 77.4529 353.965 70.9232Z" fill="#E4F338" stroke="black" stroke-width="1.87332"/>
<path d="M295.666 31.5435H33.4011C27.1934 31.5435 22.1611 36.5757 22.1611 42.7834V230.115C22.1611 236.323 27.1934 241.355 33.4011 241.355H295.666C301.874 241.355 306.906 236.323 306.906 230.115V42.7834C306.906 36.5757 301.874 31.5435 295.666 31.5435Z" fill="#FBB6B6" stroke="black" stroke-width="1.87332"/>
<path d="M314.399 12.8107H52.1345C45.9268 12.8107 40.8945 17.843 40.8945 24.0506V211.383C40.8945 217.59 45.9268 222.623 52.1345 222.623H314.399C320.607 222.623 325.639 217.59 325.639 211.383V24.0506C325.639 17.843 320.607 12.8107 314.399 12.8107Z" fill="#FFD9D9" stroke="black" stroke-width="1.87332"/>
<path d="M284.618 82.1235H176.902C171.212 82.1235 166.599 86.7365 166.599 92.4268C166.599 98.1171 171.212 102.73 176.902 102.73H284.618C290.308 102.73 294.921 98.1171 294.921 92.4268C294.921 86.7365 290.308 82.1235 284.618 82.1235Z" fill="white" stroke="black" stroke-width="1.87332"/>
<path d="M242.468 113.97H176.902C171.212 113.97 166.599 118.583 166.599 124.273C166.599 129.964 171.212 134.577 176.902 134.577H242.468C248.158 134.577 252.771 129.964 252.771 124.273C252.771 118.583 248.158 113.97 242.468 113.97Z" fill="white" stroke="black" stroke-width="1.87332"/>
<mask id="mask0_212_6829" style="mask-type:luminance" maskUnits="userSpaceOnUse" x="57" y="62" width="91" height="91">
<path d="M57.9458 62.4536H147.865V152.373H57.9458V62.4536Z" fill="white"/>
</mask>
<g mask="url(#mask0_212_6829)">
<path d="M69.1859 63.3904H136.625C142.316 63.3904 146.929 68.0033 146.929 73.6936V141.133C146.929 146.824 142.316 151.436 136.625 151.436H69.1859C63.4956 151.436 58.8826 146.824 58.8826 141.133V73.6936C58.8826 68.0033 63.4956 63.3904 69.1859 63.3904Z" stroke="black" stroke-width="1.87332"/>
<path d="M70.5635 76.1742L134.146 139.757" stroke="black" stroke-width="1.87332"/>
<path d="M134.146 74.8495L70.5639 138.432" stroke="black" stroke-width="1.87332"/>
</g>
<path d="M41.8311 48.4038H324.703" stroke="black" stroke-width="1.87332" stroke-linecap="round" stroke-linejoin="round"/>
<path d="M61.501 37.1639C65.1221 37.1639 68.0576 34.2284 68.0576 30.6073C68.0576 26.9862 65.1221 24.0507 61.501 24.0507C57.8798 24.0507 54.9443 26.9862 54.9443 30.6073C54.9443 34.2284 57.8798 37.1639 61.501 37.1639Z" fill="white" stroke="black" stroke-width="1.87332"/>
<path d="M84.917 37.1639C88.5381 37.1639 91.4736 34.2284 91.4736 30.6073C91.4736 26.9862 88.5381 24.0507 84.917 24.0507C81.2959 24.0507 78.3604 26.9862 78.3604 30.6073C78.3604 34.2284 81.2959 37.1639 84.917 37.1639Z" fill="white" stroke="black" stroke-width="1.87332"/>
<path d="M108.334 37.1639C111.955 37.1639 114.891 34.2284 114.891 30.6073C114.891 26.9862 111.955 24.0507 108.334 24.0507C104.713 24.0507 101.777 26.9862 101.777 30.6073C101.777 34.2284 104.713 37.1639 108.334 37.1639Z" fill="white" stroke="black" stroke-width="1.87332"/>
<path d="M89.6117 259.829C85.6614 255.879 82.7327 252.096 79.3467 252.096L114.336 197.92L149.324 201.87L142.552 213.721L116.522 264.512C106.364 263.947 95.998 277.014 89.6117 259.829Z" fill="black" stroke="black" stroke-width="1.87332" stroke-linecap="round" stroke-linejoin="round"/>
<path d="M159.253 175.485L143.713 167.851L94.0678 268.908L109.608 276.542L159.253 175.485Z" fill="#FFB36B" stroke="black" stroke-width="1.87332"/>
<path fill-rule="evenodd" clip-rule="evenodd" d="M173.024 160.674C194.53 160.674 211.964 143.24 211.964 121.735C211.964 100.229 194.53 82.7955 173.024 82.7955C151.519 82.7955 134.085 100.229 134.085 121.735C134.085 143.24 151.519 160.674 173.024 160.674ZM173.024 177.604C203.881 177.604 228.894 152.59 228.894 121.735C228.894 90.8789 203.881 65.8654 173.024 65.8654C142.169 65.8654 117.155 90.8789 117.155 121.735C117.155 152.59 142.169 177.604 173.024 177.604Z" fill="black"/>
<path d="M208.578 122.299C208.578 141.623 192.912 157.288 173.589 157.288" stroke="black" stroke-width="1.87332"/>
<path d="M155.164 96.3392C150.244 100.325 146.427 105.618 144.242 111.689" stroke="black" stroke-width="1.87332"/>
<path d="M141.424 266.769C157.677 264.512 161.553 253.602 161.177 248.71C138.602 251.871 120.356 247.957 114.337 245.324C103.614 241.938 101.997 249.274 104.178 253.789C110.499 266.882 132.395 268.022 141.424 266.769Z" fill="#FFCBD7" stroke="black" stroke-width="1.87332" stroke-linecap="round" stroke-linejoin="round"/>
<path d="M161.175 248.71C177.259 245.888 173.025 229.523 169.076 226.137C146.052 231.555 129.384 229.146 123.929 227.266C104.74 226.137 106.435 241.075 109.821 243.067C125.17 252.097 150.452 250.591 161.175 248.71Z" fill="#FFCBD7" stroke="black" stroke-width="1.87332" stroke-linecap="round" stroke-linejoin="round"/>
<path d="M122.235 211.463C127.307 209.123 158.917 197.179 169.075 201.305C183.521 207.174 178.668 220.018 173.025 223.879C164.447 229.748 142.739 229.71 132.957 228.958C112.076 227.265 114.898 214.849 122.235 211.463Z" fill="#FFCBD7" stroke="black" stroke-width="1.87332" stroke-linecap="round" stroke-linejoin="round"/>
<path d="M110.384 169.138C64.7855 171.847 45.6733 211.84 42.6635 230.087C40.8576 240.922 42.3337 279.033 42.5219 289.379C64.0164 296.653 83.0675 295.396 94.8383 293.985C101.159 274.121 86.8698 252.472 79.3454 252.096C102.37 249.839 116.78 217.295 121.106 201.306C170.768 205.565 179.797 192.546 178.105 185.505C176.299 172.863 132.769 168.386 110.384 169.138Z" fill="#FFCBD7" stroke="black" stroke-width="1.87332" stroke-linecap="round" stroke-linejoin="round"/>
<path d="M40.8191 254.8C27.8661 261.428 26.8833 274.445 29.5674 280.181C34.4004 290.51 54.4498 293.576 64.7853 294.935C82.1478 296.819 124.89 296.232 140.439 271.483C141.277 270.15 141.94 268.792 142.381 267.424" stroke="black" stroke-width="1.87332" stroke-linecap="round" stroke-linejoin="round"/>
<path d="M108.814 303.149C76.4916 309.031 52.321 306.679 35.7529 299.115" stroke="black" stroke-width="1.87332"/>
<path d="M161.328 189.485C141.378 186.372 150.562 174.194 153.422 174.531C163.846 175.756 174.697 177.232 173.457 185.537C172.829 189.741 163.948 190.074 161.328 189.485Z" fill="white" stroke="black" stroke-width="1.87332" stroke-linecap="round" stroke-linejoin="round"/>
<path d="M130.116 217.829C146.242 219.22 139.567 229.465 137.261 229.353C128.858 228.947 120.099 228.364 120.634 221.654C120.904 218.257 127.988 217.503 130.116 217.829Z" fill="white" stroke="black" stroke-width="1.87332" stroke-linecap="round" stroke-linejoin="round"/>
<path d="M120.625 236.051C136.546 238.959 128.935 248.527 126.649 248.198C118.322 247.001 109.657 245.593 110.823 238.965C111.413 235.608 118.537 235.525 120.625 236.051Z" fill="white" stroke="black" stroke-width="1.87332" stroke-linecap="round" stroke-linejoin="round"/>
<path d="M113.049 251.812C122.435 259.406 114.033 262.95 112.655 261.918C107.629 258.158 102.459 254.139 105.59 250.216C107.176 248.229 111.87 250.721 113.049 251.812Z" fill="white" stroke="black" stroke-width="1.87332" stroke-linecap="round" stroke-linejoin="round"/>
<mask id="mask1_212_6829" style="mask-type:luminance" maskUnits="userSpaceOnUse" x="313" y="103" width="176" height="176">
<path d="M313.655 103.667H488.811V278.822H313.655V103.667Z" fill="white"/>
</mask>
<g mask="url(#mask1_212_6829)">
<path d="M440.641 220.295C429.006 244.593 434.956 258.044 439.824 267.736C463.478 250.667 470.409 216.414 470.918 201.422C438.193 164.697 395.174 135.591 376.193 128.274C357.569 121.094 352.159 123.34 351.091 126.854C349.446 132.262 356.699 140.912 361.719 145.062C347.27 147.73 343.647 161.49 344.017 170.243C341.326 177.482 340.83 185.891 341.386 192.453C339.404 195.767 337.572 199.192 335.838 202.568C329.469 213.041 333.739 217.964 337.711 220.146C347.589 226.959 359.026 210.853 363.51 201.947C374.188 185.61 398.584 197.063 409.446 204.832C421.625 213.542 401.305 223.533 391.289 225.894C368.89 232.125 373.293 246.769 379.899 249.598C409.781 262.397 432.038 236.751 440.641 220.295Z" fill="#FFCBD7"/>
<path d="M393.931 172.833C366.813 160.209 351.963 174.767 341.386 192.453M341.386 192.453C339.404 195.767 337.572 199.192 335.838 202.568C329.469 213.041 333.739 217.964 337.711 220.146C347.589 226.959 359.026 210.853 363.51 201.947C374.188 185.61 398.584 197.063 409.446 204.832C421.625 213.542 401.305 223.533 391.289 225.894C368.89 232.125 373.293 246.769 379.899 249.598C411.301 263.047 434.281 234.045 441.845 217.863C428.614 243.705 434.796 257.726 439.824 267.736C463.478 250.667 470.409 216.414 470.918 201.422C438.193 164.697 395.174 135.591 376.193 128.274C357.569 121.094 352.159 123.34 351.091 126.854C349.446 132.262 356.699 140.912 361.719 145.062M341.386 192.453C340.83 185.891 341.326 177.482 344.017 170.243M361.719 145.062C347.27 147.73 343.647 161.49 344.017 170.243M361.719 145.062C367.02 144.084 373.779 144.599 382.332 147.401M344.017 170.243C348.702 157.632 360.039 148.569 384.048 158.991" stroke="black" stroke-width="1.87332" stroke-linecap="round" stroke-linejoin="round"/>
<path d="M343.764 213.125C349.103 204.957 342.873 199.14 338.916 197.146C330.484 210.631 332.309 214.069 333.744 216.725C337.617 219.638 342.038 215.54 343.764 213.125Z" fill="white" stroke="black" stroke-width="1.87332" stroke-linecap="round" stroke-linejoin="round"/>
<path d="M361.29 130.709C368.34 133.002 370.546 127.772 371.536 126.623C358.083 122.476 356.728 123.113 355.305 125.549C353.422 128.777 359.049 129.979 361.29 130.709Z" fill="white" stroke="black" stroke-width="1.87332" stroke-linecap="round" stroke-linejoin="round"/>
<path d="M392.604 239.799C401.623 241.188 401.555 248.756 400.394 252.367C390.878 253.529 383.348 251.153 380.773 249.82C381.118 239.05 388.804 238.652 392.604 239.799Z" fill="white" stroke="black" stroke-width="1.87332" stroke-linecap="round" stroke-linejoin="round"/>
<path d="M438.923 170.022C448.927 156.936 459.022 157.753 464.256 161.623C473.68 168.591 472.701 189.478 471.971 200.201C470.346 218.134 460.276 257.591 432.992 271.956C425.974 274.953 411.845 275.131 411.112 249.809" stroke="black" stroke-width="1.87332" stroke-linecap="round" stroke-linejoin="round"/>
<path d="M393.931 172.833C366.813 160.209 351.963 174.767 341.386 192.453M341.386 192.453C339.404 195.767 337.572 199.192 335.838 202.568C329.469 213.041 333.739 217.964 337.711 220.146C347.589 226.959 359.026 210.853 363.51 201.947C374.188 185.61 398.584 197.063 409.446 204.832C421.625 213.542 401.305 223.533 391.289 225.894C368.89 232.125 373.293 246.769 379.899 249.598C411.301 263.047 434.281 234.045 441.845 217.863C428.614 243.705 434.796 257.726 439.824 267.736C463.478 250.667 470.409 216.414 470.918 201.422C438.193 164.697 395.174 135.591 376.193 128.274C357.569 121.094 352.159 123.34 351.091 126.854C349.446 132.262 356.699 140.912 361.719 145.062M341.386 192.453C340.83 185.891 341.326 177.482 344.017 170.243M361.719 145.062C347.27 147.73 343.647 161.49 344.017 170.243M361.719 145.062C367.02 144.084 373.779 144.599 382.332 147.401M344.017 170.243C348.702 157.632 360.039 148.569 384.048 158.991" stroke="black" stroke-width="1.87332" stroke-linecap="round" stroke-linejoin="round"/>
<path d="M341.23 182.115C342.756 183.431 343.978 184.484 348.662 182.136L341.378 191.821L341.23 182.115Z" fill="black" stroke="black" stroke-width="0.93666" stroke-linecap="round" stroke-linejoin="round"/>
<path d="M345.083 161.598C345.846 162.256 346.457 162.782 349.115 161.242L344.683 167L345.083 161.598Z" fill="black" stroke="black" stroke-width="0.93666" stroke-linecap="round" stroke-linejoin="round"/>
<path d="M433.387 241.873C434.509 237.923 437.084 227.121 438.124 225.283C438.134 225.266 438.145 225.248 438.155 225.231C438.145 225.248 438.134 225.265 438.124 225.283C436.232 228.503 430.46 236.375 429.555 236.441C431.828 236.273 433.495 240.265 433.387 241.873Z" fill="black"/>
</g>
<path d="M356.141 220.558L279.401 241.12C274.005 242.566 270.803 248.112 272.249 253.508L285.142 301.626C286.588 307.022 292.134 310.225 297.53 308.779L374.27 288.217C379.666 286.771 382.868 281.224 381.422 275.828L368.529 227.71C367.083 222.314 361.537 219.112 356.141 220.558Z" fill="#FFD9D9" stroke="black" stroke-width="1.68584"/>
<mask id="mask2_212_6829" style="mask-type:luminance" maskUnits="userSpaceOnUse" x="276" y="241" width="24" height="24">
<path d="M299.886 241.839H276.942V264.783H299.886V241.839Z" fill="white"/>
<path fill-rule="evenodd" clip-rule="evenodd" d="M281.865 249.561C280.932 251.191 280.616 253.173 281.141 255.117C281.669 257.079 282.945 258.639 284.579 259.577L284.581 259.575V259.576C286.2 260.504 288.172 260.82 290.118 260.305C292.07 259.789 293.627 258.513 294.571 256.879C294.635 256.769 294.7 256.658 294.765 256.548C295.574 254.967 295.82 253.09 295.325 251.246L295.146 250.573C295.108 250.433 294.964 250.35 294.824 250.387L288.214 252.158C288.089 252.192 288.014 252.321 288.047 252.446L288.633 254.629C288.667 254.755 288.795 254.829 288.92 254.795L292.149 253.931C292.482 253.842 292.785 254.149 292.691 254.48C292.585 254.849 292.433 255.202 292.241 255.53L292.239 255.534H292.24C291.641 256.559 290.65 257.351 289.408 257.675C288.19 257.994 286.958 257.796 285.944 257.217L285.942 257.22L285.943 257.217C284.898 256.622 284.085 255.62 283.76 254.362C283.448 253.152 283.65 251.925 284.228 250.915C284.821 249.879 285.81 249.069 287.046 248.74C288.187 248.435 289.342 248.584 290.319 249.076C290.459 249.146 290.639 249.091 290.718 248.955L291.777 247.121C291.863 246.972 291.809 246.78 291.656 246.701C290.047 245.856 288.122 245.602 286.229 246.139C284.315 246.684 282.79 247.946 281.867 249.554C281.866 249.556 281.866 249.558 281.865 249.561Z" fill="black"/>
</mask>
<g mask="url(#mask2_212_6829)">
<path d="M281.865 249.561L283.328 250.399L283.387 250.295L283.431 250.184L281.865 249.561ZM284.579 259.577L283.741 261.039L284.705 261.59L285.592 260.925L284.579 259.577ZM284.581 259.575L286.042 260.419L283.57 258.227L284.581 259.575ZM284.581 259.576L283.122 258.732L282.274 260.197L283.743 261.039L284.581 259.576ZM294.572 256.879L296.031 257.723L296.623 256.7L295.863 255.795L294.572 256.879ZM294.572 256.879L293.112 256.035L292.521 257.058L293.281 257.963L294.572 256.879ZM294.766 256.548L296.216 257.405L296.244 257.361L296.267 257.315L294.766 256.548ZM292.241 255.53L290.785 254.682L290.759 254.728L290.734 254.774L292.241 255.53ZM292.239 255.534L290.732 254.778L290.02 256.199L291.396 256.994L292.239 255.534ZM292.24 255.534L293.696 256.385L294.55 254.921L293.083 254.075L292.24 255.534ZM285.944 257.217L286.781 255.753L285.324 254.921L284.485 256.373L285.944 257.217ZM285.942 257.22L284.282 256.931L287.402 258.064L285.942 257.22ZM285.943 257.217L287.604 257.507L287.807 256.34L286.779 255.753L285.943 257.217ZM284.228 250.914L285.691 251.752L286.527 250.293L285.07 249.454L284.228 250.914ZM284.228 250.914L282.765 250.077L281.93 251.535L283.386 252.375L284.228 250.914ZM282.769 254.679C282.366 253.184 282.606 251.659 283.328 250.399L280.402 248.724C279.257 250.721 278.868 253.161 279.513 255.556L282.769 254.679ZM285.418 258.114C284.156 257.39 283.175 256.19 282.769 254.679L279.513 255.556C280.163 257.967 281.734 259.889 283.741 261.039L285.418 258.114ZM283.57 258.227L283.567 258.228L285.592 260.925L285.594 260.923L283.57 258.227ZM286.041 260.42L286.042 260.419L283.122 258.731V258.732L286.041 260.42ZM289.688 258.675C288.186 259.072 286.67 258.83 285.42 258.113L283.743 261.039C285.732 262.178 288.158 262.567 290.551 261.934L289.688 258.675ZM293.112 256.035C292.379 257.304 291.179 258.28 289.688 258.675L290.551 261.934C292.96 261.296 294.876 259.721 296.031 257.723L293.112 256.035ZM293.281 257.963L295.863 255.795L295.862 255.794L293.281 257.963ZM296.031 257.722C296.091 257.619 296.153 257.514 296.216 257.405L293.314 255.69C293.247 255.803 293.18 255.919 293.112 256.035L296.031 257.722ZM296.267 257.315C297.257 255.376 297.561 253.072 296.955 250.81L293.698 251.682C294.079 253.107 293.89 254.556 293.264 255.78L296.267 257.315ZM296.955 250.81L296.774 250.136L293.517 251.009L293.698 251.682L296.955 250.81ZM296.774 250.136C296.495 249.095 295.426 248.481 294.388 248.758L295.26 252.015C294.502 252.218 293.721 251.77 293.517 251.009L296.774 250.136ZM294.388 248.758L287.778 250.529L288.651 253.786L295.26 252.015L294.388 248.758ZM287.778 250.529C286.754 250.804 286.145 251.856 286.42 252.882L289.677 252.009C289.885 252.785 289.423 253.579 288.651 253.786L287.778 250.529ZM286.42 252.882L287.004 255.066L290.261 254.193L289.677 252.009L286.42 252.882ZM287.004 255.066C287.28 256.091 288.334 256.698 289.357 256.424L288.484 253.167C289.257 252.96 290.054 253.417 290.261 254.193L287.004 255.066ZM289.357 256.424L292.585 255.558L291.713 252.302L288.484 253.167L289.357 256.424ZM292.585 255.558C291.662 255.807 290.801 254.953 291.07 254.015L294.311 254.943C294.769 253.343 293.302 251.876 291.713 252.302L292.585 255.558ZM291.07 254.015C291.003 254.248 290.907 254.471 290.785 254.682L293.698 256.38C293.959 255.931 294.166 255.449 294.311 254.943L291.07 254.015ZM290.734 254.774L290.732 254.778L293.747 256.29L293.748 256.286L290.734 254.774ZM291.396 256.994H291.397L293.083 254.075L293.082 254.074L291.396 256.994ZM289.833 259.307C291.522 258.866 292.878 257.784 293.696 256.385L290.785 254.685C290.405 255.334 289.777 255.837 288.982 256.045L289.833 259.307ZM285.109 258.681C286.489 259.469 288.172 259.741 289.833 259.307L288.982 256.045C288.207 256.247 287.427 256.122 286.781 255.753L285.109 258.681ZM287.402 258.064L287.404 258.06L284.485 256.373L284.483 256.376L287.402 258.064ZM284.282 256.928L284.282 256.931L287.603 257.509L287.604 257.507L284.282 256.928ZM282.128 254.783C282.572 256.501 283.684 257.869 285.107 258.681L286.779 255.753C286.113 255.373 285.599 254.739 285.392 253.939L282.128 254.783ZM282.765 250.077C281.979 251.45 281.7 253.128 282.128 254.783L285.392 253.939C285.196 253.176 285.32 252.4 285.691 251.752L282.765 250.077ZM286.612 247.111C284.919 247.562 283.571 248.669 282.765 250.077L285.691 251.752C286.072 251.088 286.7 250.576 287.481 250.368L286.612 247.111ZM291.077 247.57C289.745 246.899 288.167 246.696 286.612 247.111L287.481 250.368C288.208 250.174 288.94 250.268 289.562 250.582L291.077 247.57ZM289.258 248.112C289.619 247.487 290.406 247.231 291.077 247.57L289.562 250.582C290.513 251.061 291.66 250.694 292.178 249.799L289.258 248.112ZM290.318 246.277L289.258 248.112L292.178 249.799L293.238 247.965L290.318 246.277ZM290.874 248.193C290.172 247.825 289.929 246.952 290.318 246.277L293.238 247.965C293.8 246.991 293.447 245.735 292.44 245.207L290.874 248.193ZM286.69 247.762C288.151 247.347 289.632 247.542 290.874 248.193L292.44 245.207C290.464 244.17 288.094 243.858 285.769 244.518L286.69 247.762ZM283.33 250.393C284.044 249.15 285.218 248.179 286.69 247.762L285.769 244.518C283.412 245.187 281.537 246.743 280.406 248.714L283.33 250.393ZM283.431 250.184C283.407 250.246 283.374 250.317 283.33 250.393L280.406 248.714C280.36 248.795 280.325 248.871 280.298 248.938L283.431 250.184Z" fill="black"/>
</g>
<path d="M284.226 250.914C284.82 249.879 285.808 249.069 287.046 248.74C288.187 248.435 289.342 248.584 290.318 249.076C290.459 249.146 290.639 249.091 290.717 248.955L291.777 247.121C291.863 246.972 291.809 246.78 291.656 246.7C290.047 245.856 288.122 245.602 286.228 246.139C284.314 246.684 282.79 247.946 281.867 249.554C281.764 249.733 282.388 251.402 282.388 251.402C282.388 251.402 283.648 251.926 284.226 250.914Z" fill="#F16F6F"/>
<path d="M283.76 254.361C284.085 255.62 284.898 256.621 285.942 257.217L285.675 258.753L284.579 259.577C282.944 258.639 281.668 257.079 281.14 255.117C280.616 253.17 280.932 251.184 281.868 249.554L284.227 250.915C283.65 251.925 283.447 253.152 283.76 254.361Z" fill="#F2E19A"/>
<path d="M292.24 255.534C291.642 256.559 290.65 257.351 289.408 257.675C288.19 257.994 286.958 257.796 285.944 257.217L284.581 259.576C286.201 260.504 288.172 260.82 290.119 260.304C292.07 259.788 293.627 258.513 294.571 256.879L293.735 255.885L292.24 255.534Z" fill="#7DF0B7"/>
<path d="M295.145 250.573C295.107 250.433 294.963 250.35 294.823 250.387L288.214 252.158C288.088 252.192 288.013 252.32 288.047 252.446L288.633 254.629C288.666 254.755 288.795 254.829 288.92 254.795L292.148 253.931C292.48 253.842 292.785 254.149 292.689 254.479C292.584 254.848 292.433 255.202 292.241 255.53C292.24 255.532 292.239 255.534 292.239 255.534L294.571 256.879C294.635 256.77 294.699 256.659 294.765 256.548C295.573 254.966 295.82 253.089 295.325 251.246L295.145 250.573Z" fill="#7FAEF4"/>
<path opacity="0.2" d="M288.113 276.61L366.089 255.717" stroke="black" stroke-width="1.68584"/>
<path opacity="0.2" d="M292.859 294.325L370.835 273.432" stroke="black" stroke-width="1.68584"/>
<path d="M293.568 297.519L305.379 279.891C308.131 275.783 314.076 275.516 317.184 279.361C320.707 283.718 327.617 282.68 329.704 277.481L330.279 276.049C331.246 273.64 333.29 271.827 335.797 271.155L340.524 269.888C345.335 268.6 349.329 265.25 351.436 260.737L358.87 244.818" stroke="black" stroke-width="1.68584" stroke-linecap="round" stroke-linejoin="round"/>
<path d="M344.524 236.299C344.634 236.711 344.63 237.102 344.511 237.472L343.558 240.591L341.761 241.072L342.422 238.951C341.875 239.007 341.4 238.902 340.997 238.637C340.597 238.366 340.329 237.974 340.191 237.46C340.034 236.871 340.104 236.343 340.402 235.873C340.699 235.398 341.174 235.073 341.826 234.898C342.479 234.722 343.052 234.767 343.547 235.03C344.041 235.287 344.366 235.711 344.524 236.299ZM342.504 237.425C342.878 237.324 343.017 237.093 342.919 236.729C342.821 236.365 342.586 236.233 342.211 236.333C341.837 236.435 341.698 236.666 341.795 237.03C341.893 237.394 342.129 237.526 342.504 237.425Z" fill="black"/>
<path d="M344.631 238.626L346.316 238.175L346.314 241.056L345.11 241.379L344.631 238.626Z" fill="black"/>
<path d="M349.364 233.015L348.703 235.135C349.25 235.081 349.723 235.189 350.123 235.461C350.526 235.726 350.796 236.114 350.934 236.628C351.091 237.216 351.022 237.748 350.725 238.223C350.426 238.693 349.952 239.015 349.299 239.19C348.641 239.366 348.065 239.325 347.571 239.068C347.083 238.803 346.759 238.377 346.601 237.789C346.491 237.377 346.495 236.985 346.614 236.615L347.567 233.496L349.364 233.015ZM348.621 236.662C348.247 236.762 348.108 236.995 348.206 237.358C348.304 237.723 348.539 237.854 348.914 237.753C349.288 237.653 349.427 237.421 349.33 237.058C349.232 236.694 348.996 236.562 348.621 236.662Z" fill="black"/>
<path d="M355.226 235.039L355.788 234.888L356.175 236.332L355.614 236.483L355.833 237.302L354.26 237.722L354.041 236.905L351.682 237.537L351.295 236.093L351.945 232.324L353.766 231.836L353.092 235.611L353.653 235.46L353.444 234.674L355.015 234.253L355.226 235.039Z" fill="black"/>
<path d="M357.567 232.924L357.904 232.834C358.46 232.685 358.962 232.72 359.411 232.938C359.859 233.155 360.161 233.556 360.318 234.14C360.484 234.76 360.416 235.296 360.113 235.751C359.813 236.192 359.36 236.494 358.756 236.656C358.222 236.799 357.736 236.809 357.302 236.685C356.866 236.554 356.509 236.295 356.233 235.904L357.428 234.716C357.645 235.076 357.949 235.204 358.339 235.1C358.488 235.059 358.597 234.993 358.665 234.9C358.729 234.803 358.745 234.689 358.71 234.561C358.64 234.299 358.445 234.211 358.124 234.297L356.279 234.792L355.604 231.344L358.982 230.438L359.399 231.995L357.489 232.506L357.567 232.924Z" fill="black"/>
</g>
<defs>
<clipPath id="clip0_212_6829">
<rect width="488" height="336.261" fill="white" transform="translate(0.80957 0.634155)"/>
</clipPath>
</defs>
</svg>
